<svg width="35" height="1024" viewBox="0 0 35 1024" fill="none" xmlns="http://www.w3.org/2000/svg">
<path d="M27.2298 54.1144C27.2298 57.4573 26.5634 59.9356 25.2281 61.5465C23.8951 63.1601 21.8512 63.9656 19.1011 63.9656H8.12873C5.37862 63.9656 3.33708 63.1601 2.00178 61.5465C0.668819 59.9356 0 57.4573 0 54.1144L0 43.8001H2.25434L2.25434 54.1144C2.25434 56.428 2.73608 58.1367 3.69488 59.2407C4.65601 60.3396 6.13396 60.8877 8.12873 60.8877H12.4878L12.4878 45.9823H14.7421L14.7421 60.8877H19.1011C21.0982 60.8877 22.5762 60.3396 23.535 59.2407C24.4961 58.1367 24.9755 56.428 24.9755 54.1144L24.9755 43.5427H27.2298L27.2298 54.1144Z" fill="white"/>
<path d="M0 46.4011L0 33.6883C0 30.8344 0.673497 28.6598 2.02049 27.162C3.36748 25.6592 5.32717 24.9077 7.89488 24.9077C10.4906 24.9077 12.4597 25.6592 13.8067 27.162C15.1537 28.6598 15.8272 30.8344 15.8272 33.6883L15.8272 43.313L27.2298 43.313V46.4011L0 46.4011ZM13.5728 33.9456C13.5728 32.0593 13.0747 30.5976 12.0762 29.5605C11.08 28.5183 9.68619 27.9958 7.89488 27.9958C6.13163 27.9958 4.74955 28.5183 3.751 29.5605C2.75479 30.5976 2.25434 32.0593 2.25434 33.9456L2.25434 43.313H13.5728L13.5728 33.9456Z" fill="white"/>
<path d="M27.2298 396.984C27.2298 400.327 26.5634 402.805 25.2281 404.416C23.8951 406.029 21.8512 406.835 19.1011 406.835H8.12873C5.37862 406.835 3.33708 406.029 2.00178 404.416C0.668819 402.805 0 400.327 0 396.984L0 386.669H2.25434L2.25434 396.984C2.25434 399.297 2.73608 401.006 3.69488 402.11C4.65601 403.209 6.13396 403.757 8.12873 403.757H12.4878L12.4878 388.852H14.7421L14.7421 403.757H19.1011C21.0982 403.757 22.5762 403.209 23.535 402.11C24.4961 401.006 24.9755 399.297 24.9755 396.984L24.9755 386.412H27.2298L27.2298 396.984Z" fill="white"/>
<path d="M0 389.271L0 376.558C0 373.704 0.673497 371.529 2.02049 370.031C3.36748 368.529 5.32717 367.777 7.89488 367.777C10.4906 367.777 12.4597 368.529 13.8067 370.031C15.1537 371.529 15.8272 373.704 15.8272 376.558L15.8272 386.182H27.2298V389.271H0ZM13.5728 376.815C13.5728 374.929 13.0747 373.467 12.0762 372.43C11.08 371.388 9.68619 370.865 7.89488 370.865C6.13163 370.865 4.74955 371.388 3.751 372.43C2.75479 373.467 2.25434 374.929 2.25434 376.815L2.25434 386.182H13.5728L13.5728 376.815Z" fill="white"/>
<path d="M27.2298 739.853C27.2298 743.196 26.5634 745.674 25.2281 747.285C23.8951 748.899 21.8512 749.704 19.1011 749.704H8.12873C5.37862 749.704 3.33708 748.899 2.00178 747.285C0.668819 745.674 0 743.196 0 739.853L0 729.539H2.25434L2.25434 739.853C2.25434 742.167 2.73608 743.875 3.69488 744.98C4.65601 746.078 6.13396 746.627 8.12873 746.627H12.4878L12.4878 731.721H14.7421L14.7421 746.627H19.1011C21.0982 746.627 22.5762 746.078 23.535 744.98C24.4961 743.875 24.9755 742.167 24.9755 739.853L24.9755 729.281H27.2298L27.2298 739.853Z" fill="white"/>
<path d="M0 732.14L0 719.427C0 716.573 0.673497 714.399 2.02049 712.901C3.36748 711.398 5.32717 710.646 7.89488 710.646C10.4906 710.646 12.4597 711.398 13.8067 712.901C15.1537 714.399 15.8272 716.573 15.8272 719.427L15.8272 729.052H27.2298V732.14H0ZM13.5728 719.684C13.5728 717.798 13.0747 716.336 12.0762 715.299C11.08 714.257 9.68619 713.735 7.89488 713.735C6.13163 713.735 4.74955 714.257 3.751 715.299C2.75479 716.336 2.25434 717.798 2.25434 719.684L2.25434 729.052H13.5728L13.5728 719.684Z" fill="white"/>
<path d="M27.2298 122.688C27.2298 126.031 26.5634 128.509 25.2281 130.12C23.8951 131.734 21.8512 132.539 19.1011 132.539H8.12873C5.37862 132.539 3.33708 131.734 2.00178 130.12C0.668819 128.509 0 126.031 0 122.688L0 112.374H2.25434L2.25434 122.688C2.25434 125.002 2.73608 126.71 3.69488 127.814C4.65601 128.913 6.13396 129.461 8.12873 129.461H12.4878L12.4878 114.556H14.7421L14.7421 129.461H19.1011C21.0982 129.461 22.5762 128.913 23.535 127.814C24.4961 126.71 24.9755 125.002 24.9755 122.688L24.9755 112.116H27.2298L27.2298 122.688Z" fill="white"/>
<path d="M0 114.975L0 102.262C0 99.4081 0.673497 97.2335 2.02049 95.7358C3.36748 94.2329 5.32717 93.4814 7.89488 93.4814C10.4906 93.4814 12.4597 94.2329 13.8067 95.7358C15.1537 97.2335 15.8272 99.4081 15.8272 102.262L15.8272 111.887H27.2298V114.975H0ZM13.5728 102.519C13.5728 100.633 13.0747 99.1713 12.0762 98.1342C11.08 97.092 9.68619 96.5696 7.89488 96.5696C6.13163 96.5696 4.74955 97.092 3.751 98.1342C2.75479 99.1713 2.25434 100.633 2.25434 102.519L2.25434 111.887H13.5728L13.5728 102.519Z" fill="white"/>
<path d="M27.2298 465.558C27.2298 468.901 26.5634 471.379 25.2281 472.99C23.8951 474.603 21.8512 475.409 19.1011 475.409H8.12873C5.37862 475.409 3.33708 474.603 2.00178 472.99C0.668819 471.379 0 468.901 0 465.558L0 455.243H2.25434L2.25434 465.558C2.25434 467.871 2.73608 469.58 3.69488 470.684C4.65601 471.783 6.13396 472.331 8.12873 472.331H12.4878L12.4878 457.426H14.7421L14.7421 472.331H19.1011C21.0982 472.331 22.5762 471.783 23.535 470.684C24.4961 469.58 24.9755 467.871 24.9755 465.558L24.9755 454.986H27.2298L27.2298 465.558Z" fill="white"/>
<path d="M0 457.844L0 445.132C0 442.278 0.673497 440.103 2.02049 438.605C3.36748 437.103 5.32717 436.351 7.89488 436.351C10.4906 436.351 12.4597 437.103 13.8067 438.605C15.1537 440.103 15.8272 442.278 15.8272 445.132L15.8272 454.756H27.2298V457.844H0ZM13.5728 445.389C13.5728 443.503 13.0747 442.041 12.0762 441.004C11.08 439.962 9.68619 439.439 7.89488 439.439C6.13163 439.439 4.74955 439.962 3.751 441.004C2.75479 442.041 2.25434 443.503 2.25434 445.389L2.25434 454.756H13.5728L13.5728 445.389Z" fill="white"/>
<path d="M27.2298 808.427C27.2298 811.77 26.5634 814.248 25.2281 815.859C23.8951 817.473 21.8512 818.278 19.1011 818.278H8.12873C5.37862 818.278 3.33708 817.473 2.00178 815.859C0.668819 814.248 0 811.77 0 808.427L0 798.113H2.25434L2.25434 808.427C2.25434 810.741 2.73608 812.449 3.69488 813.553C4.65601 814.652 6.13396 815.2 8.12873 815.2H12.4878L12.4878 800.295H14.7421L14.7421 815.2H19.1011C21.0982 815.2 22.5762 814.652 23.535 813.553C24.4961 812.449 24.9755 810.741 24.9755 808.427L24.9755 797.855H27.2298L27.2298 808.427Z" fill="white"/>
<path d="M0 800.714L0 788.001C0 785.147 0.673497 782.973 2.02049 781.475C3.36748 779.972 5.32717 779.22 7.89488 779.22C10.4906 779.22 12.4597 779.972 13.8067 781.475C15.1537 782.973 15.8272 785.147 15.8272 788.001L15.8272 797.626H27.2298V800.714H0ZM13.5728 788.258C13.5728 786.372 13.0747 784.91 12.0762 783.873C11.08 782.831 9.68619 782.309 7.89488 782.309C6.13163 782.309 4.74955 782.831 3.751 783.873C2.75479 784.91 2.25434 786.372 2.25434 788.258L2.25434 797.626H13.5728L13.5728 788.258Z" fill="white"/>
<path d="M27.2298 191.262C27.2298 194.605 26.5634 197.083 25.2281 198.694C23.8951 200.308 21.8512 201.113 19.1011 201.113H8.12873C5.37862 201.113 3.33708 200.308 2.00178 198.694C0.668819 197.083 0 194.605 0 191.262L0 180.948H2.25434L2.25434 191.262C2.25434 193.576 2.73608 195.284 3.69488 196.388C4.65601 197.487 6.13396 198.035 8.12873 198.035H12.4878L12.4878 183.13H14.7421L14.7421 198.035H19.1011C21.0982 198.035 22.5762 197.487 23.535 196.388C24.4961 195.284 24.9755 193.576 24.9755 191.262L24.9755 180.69H27.2298L27.2298 191.262Z" fill="white"/>
<path d="M0 183.549L0 170.836C0 167.982 0.673497 165.807 2.02049 164.31C3.36748 162.807 5.32717 162.055 7.89488 162.055C10.4906 162.055 12.4597 162.807 13.8067 164.31C15.1537 165.807 15.8272 167.982 15.8272 170.836L15.8272 180.461H27.2298V183.549H0ZM13.5728 171.093C13.5728 169.207 13.0747 167.745 12.0762 166.708C11.08 165.666 9.68619 165.144 7.89488 165.144C6.13163 165.144 4.74955 165.666 3.751 166.708C2.75479 167.745 2.25434 169.207 2.25434 171.093L2.25434 180.461H13.5728L13.5728 171.093Z" fill="white"/>
<path d="M27.2298 534.132C27.2298 537.474 26.5634 539.953 25.2281 541.564C23.8951 543.177 21.8512 543.983 19.1011 543.983H8.12873C5.37862 543.983 3.33708 543.177 2.00178 541.564C0.668819 539.953 0 537.474 0 534.132L0 523.817H2.25434L2.25434 534.132C2.25434 536.445 2.73608 538.154 3.69488 539.258C4.65601 540.357 6.13396 540.905 8.12873 540.905H12.4878L12.4878 525.999H14.7421L14.7421 540.905H19.1011C21.0982 540.905 22.5762 540.357 23.535 539.258C24.4961 538.154 24.9755 536.445 24.9755 534.132L24.9755 523.56H27.2298L27.2298 534.132Z" fill="white"/>
<path d="M0 526.418L0 513.705C0 510.851 0.673497 508.677 2.02049 507.179C3.36748 505.676 5.32717 504.925 7.89488 504.925C10.4906 504.925 12.4597 505.676 13.8067 507.179C15.1537 508.677 15.8272 510.851 15.8272 513.705L15.8272 523.33H27.2298V526.418H0ZM13.5728 513.963C13.5728 512.076 13.0747 510.615 12.0762 509.578C11.08 508.535 9.68619 508.013 7.89488 508.013C6.13163 508.013 4.74955 508.535 3.751 509.578C2.75479 510.615 2.25434 512.076 2.25434 513.963L2.25434 523.33H13.5728L13.5728 513.963Z" fill="white"/>
<path d="M27.2298 877.001C27.2298 880.344 26.5634 882.822 25.2281 884.433C23.8951 886.047 21.8512 886.852 19.1011 886.852H8.12873C5.37862 886.852 3.33708 886.047 2.00178 884.433C0.668819 882.822 0 880.344 0 877.001L0 866.687H2.25434L2.25434 877.001C2.25434 879.315 2.73608 881.023 3.69488 882.127C4.65601 883.226 6.13396 883.774 8.12873 883.774H12.4878L12.4878 868.869H14.7421L14.7421 883.774H19.1011C21.0982 883.774 22.5762 883.226 23.535 882.127C24.4961 881.023 24.9755 879.315 24.9755 877.001L24.9755 866.429H27.2298L27.2298 877.001Z" fill="white"/>
<path d="M0 869.288L0 856.575C0 853.721 0.673497 851.547 2.02049 850.049C3.36748 848.546 5.32717 847.794 7.89488 847.794C10.4906 847.794 12.4597 848.546 13.8067 850.049C15.1537 851.547 15.8272 853.721 15.8272 856.575L15.8272 866.2H27.2298V869.288H0ZM13.5728 856.832C13.5728 854.946 13.0747 853.484 12.0762 852.447C11.08 851.405 9.68619 850.883 7.89488 850.883C6.13163 850.883 4.74955 851.405 3.751 852.447C2.75479 853.484 2.25434 854.946 2.25434 856.832L2.25434 866.2H13.5728L13.5728 856.832Z" fill="white"/>
<path d="M27.2298 259.836C27.2298 263.179 26.5634 265.657 25.2281 267.268C23.8951 268.882 21.8512 269.687 19.1011 269.687H8.12873C5.37862 269.687 3.33708 268.882 2.00178 267.268C0.668819 265.657 0 263.179 0 259.836L0 249.522H2.25434L2.25434 259.836C2.25434 262.15 2.73608 263.858 3.69488 264.962C4.65601 266.061 6.13396 266.609 8.12873 266.609H12.4878L12.4878 251.704H14.7421L14.7421 266.609H19.1011C21.0982 266.609 22.5762 266.061 23.535 264.962C24.4961 263.858 24.9755 262.15 24.9755 259.836L24.9755 249.264H27.2298L27.2298 259.836Z" fill="white"/>
<path d="M0 252.123L0 239.41C0 236.556 0.673497 234.381 2.02049 232.884C3.36748 231.381 5.32717 230.629 7.89488 230.629C10.4906 230.629 12.4597 231.381 13.8067 232.884C15.1537 234.381 15.8272 236.556 15.8272 239.41L15.8272 249.035H27.2298V252.123H0ZM13.5728 239.667C13.5728 237.781 13.0747 236.319 12.0762 235.282C11.08 234.24 9.68619 233.718 7.89488 233.718C6.13163 233.718 4.74955 234.24 3.751 235.282C2.75479 236.319 2.25434 237.781 2.25434 239.667L2.25434 249.035H13.5728L13.5728 239.667Z" fill="white"/>
<path d="M27.2298 602.705C27.2298 606.048 26.5634 608.527 25.2281 610.138C23.8951 611.751 21.8512 612.557 19.1011 612.557H8.12873C5.37862 612.557 3.33708 611.751 2.00178 610.138C0.668819 608.527 0 606.048 0 602.705L0 592.391H2.25434L2.25434 602.705C2.25434 605.019 2.73608 606.728 3.69488 607.832C4.65601 608.931 6.13396 609.479 8.12873 609.479H12.4878L12.4878 594.573H14.7421L14.7421 609.479H19.1011C21.0982 609.479 22.5762 608.931 23.535 607.832C24.4961 606.728 24.9755 605.019 24.9755 602.705L24.9755 592.134H27.2298L27.2298 602.705Z" fill="white"/>
<path d="M0 594.992L0 582.279C0 579.425 0.673497 577.251 2.02049 575.753C3.36748 574.25 5.32717 573.499 7.89488 573.499C10.4906 573.499 12.4597 574.25 13.8067 575.753C15.1537 577.251 15.8272 579.425 15.8272 582.279L15.8272 591.904H27.2298V594.992H0ZM13.5728 582.537C13.5728 580.65 13.0747 579.189 12.0762 578.152C11.08 577.109 9.68619 576.587 7.89488 576.587C6.13163 576.587 4.74955 577.109 3.751 578.152C2.75479 579.189 2.25434 580.65 2.25434 582.537L2.25434 591.904H13.5728L13.5728 582.537Z" fill="white"/>
<path d="M27.2298 945.575C27.2298 948.918 26.5634 951.396 25.2281 953.007C23.8951 954.621 21.8512 955.426 19.1011 955.426H8.12873C5.37862 955.426 3.33708 954.621 2.00178 953.007C0.668819 951.396 0 948.918 0 945.575L0 935.261H2.25434L2.25434 945.575C2.25434 947.888 2.73608 949.597 3.69488 950.701C4.65601 951.8 6.13396 952.348 8.12873 952.348H12.4878L12.4878 937.443H14.7421L14.7421 952.348H19.1011C21.0982 952.348 22.5762 951.8 23.535 950.701C24.4961 949.597 24.9755 947.888 24.9755 945.575L24.9755 935.003H27.2298L27.2298 945.575Z" fill="white"/>
<path d="M0 937.862L0 925.149C0 922.295 0.673497 920.12 2.02049 918.622C3.36748 917.12 5.32717 916.368 7.89488 916.368C10.4906 916.368 12.4597 917.12 13.8067 918.622C15.1537 920.12 15.8272 922.295 15.8272 925.149L15.8272 934.773H27.2298V937.862H0ZM13.5728 925.406C13.5728 923.52 13.0747 922.058 12.0762 921.021C11.08 919.979 9.68619 919.456 7.89488 919.456C6.13163 919.456 4.74955 919.979 3.751 921.021C2.75479 922.058 2.25434 923.52 2.25434 925.406L2.25434 934.773H13.5728L13.5728 925.406Z" fill="white"/>
<path d="M27.2298 328.41C27.2298 331.753 26.5634 334.231 25.2281 335.842C23.8951 337.455 21.8512 338.261 19.1011 338.261H8.12873C5.37862 338.261 3.33708 337.455 2.00178 335.842C0.668819 334.231 0 331.753 0 328.41L0 318.095H2.25434L2.25434 328.41C2.25434 330.723 2.73608 332.432 3.69488 333.536C4.65601 334.635 6.13396 335.183 8.12873 335.183H12.4878L12.4878 320.278H14.7421L14.7421 335.183H19.1011C21.0982 335.183 22.5762 334.635 23.535 333.536C24.4961 332.432 24.9755 330.723 24.9755 328.41L24.9755 317.838H27.2298L27.2298 328.41Z" fill="white"/>
<path d="M0 320.697L0 307.984C0 305.13 0.673497 302.955 2.02049 301.457C3.36748 299.955 5.32717 299.203 7.89488 299.203C10.4906 299.203 12.4597 299.955 13.8067 301.457C15.1537 302.955 15.8272 305.13 15.8272 307.984L15.8272 317.608H27.2298V320.697H0ZM13.5728 308.241C13.5728 306.355 13.0747 304.893 12.0762 303.856C11.08 302.814 9.68619 302.291 7.89488 302.291C6.13163 302.291 4.74955 302.814 3.751 303.856C2.75479 304.893 2.25434 306.355 2.25434 308.241L2.25434 317.608H13.5728L13.5728 308.241Z" fill="white"/>
<path d="M27.2298 671.279C27.2298 674.622 26.5634 677.101 25.2281 678.712C23.8951 680.325 21.8512 681.131 19.1011 681.131H8.12873C5.37862 681.131 3.33708 680.325 2.00178 678.712C0.668819 677.101 0 674.622 0 671.279L0 660.965H2.25434L2.25434 671.279C2.25434 673.593 2.73608 675.302 3.69488 676.406C4.65601 677.505 6.13396 678.053 8.12873 678.053H12.4878L12.4878 663.147H14.7421L14.7421 678.053H19.1011C21.0982 678.053 22.5762 677.505 23.535 676.406C24.4961 675.302 24.9755 673.593 24.9755 671.279L24.9755 660.708H27.2298L27.2298 671.279Z" fill="white"/>
<path d="M0 663.566L0 650.853C0 647.999 0.673497 645.825 2.02049 644.327C3.36748 642.824 5.32717 642.073 7.89488 642.073C10.4906 642.073 12.4597 642.824 13.8067 644.327C15.1537 645.825 15.8272 647.999 15.8272 650.853L15.8272 660.478H27.2298V663.566H0ZM13.5728 651.111C13.5728 649.224 13.0747 647.763 12.0762 646.726C11.08 645.683 9.68619 645.161 7.89488 645.161C6.13163 645.161 4.74955 645.683 3.751 646.726C2.75479 647.763 2.25434 649.224 2.25434 651.111L2.25434 660.478H13.5728L13.5728 651.111Z" fill="white"/>
<path d="M27.2298 1014.15C27.2298 1017.49 26.5634 1019.97 25.2281 1021.58C23.8951 1023.19 21.8512 1024 19.1011 1024H8.12873C5.37862 1024 3.33708 1023.19 2.00178 1021.58C0.668819 1019.97 0 1017.49 0 1014.15L0 1003.83H2.25434L2.25434 1014.15C2.25434 1016.46 2.73608 1018.17 3.69488 1019.28C4.65601 1020.37 6.13396 1020.92 8.12873 1020.92H12.4878L12.4878 1006.02H14.7421L14.7421 1020.92H19.1011C21.0982 1020.92 22.5762 1020.37 23.535 1019.28C24.4961 1018.17 24.9755 1016.46 24.9755 1014.15L24.9755 1003.58H27.2298L27.2298 1014.15Z" fill="white"/>
<path d="M0 1006.44L0 993.723C0 990.869 0.673497 988.694 2.02049 987.196C3.36748 985.694 5.32717 984.942 7.89488 984.942C10.4906 984.942 12.4597 985.694 13.8067 987.196C15.1537 988.694 15.8272 990.869 15.8272 993.723L15.8272 1003.35H27.2298V1006.44H0ZM13.5728 993.98C13.5728 992.094 13.0747 990.632 12.0762 989.595C11.08 988.553 9.68619 988.03 7.89488 988.03C6.13163 988.03 4.74955 988.553 3.751 989.595C2.75479 990.632 2.25434 992.094 2.25434 993.98L2.25434 1003.35H13.5728L13.5728 993.98Z" fill="white"/>
<path d="M7.77016 9.85139C7.77016 6.50849 8.43664 4.03026 9.77194 2.41928C11.1049 0.805732 13.1488 0.000244141 15.8989 0.000244141L26.8713 0.000244141C29.6214 0.000244141 31.6629 0.805732 32.9982 2.41928C34.3312 4.03026 35 6.50849 35 9.85139L35 20.1658H32.7457L32.7457 9.85139C32.7457 7.53786 32.2639 5.8291 31.3051 4.72509C30.344 3.62623 28.866 3.07808 26.8713 3.07808L22.5122 3.07808L22.5122 17.9835H20.2579L20.2579 3.07808L15.8989 3.07808C13.9018 3.07808 12.4238 3.62623 11.465 4.72509C10.5039 5.8291 10.0245 7.53786 10.0245 9.85139V20.4231H7.77016V9.85139Z" fill="white"/>
<path d="M35 17.5647V30.2775C35 33.1315 34.3265 35.306 32.9795 36.8038C31.6325 38.3067 29.6728 39.0581 27.1051 39.0581C24.5094 39.0581 22.5403 38.3067 21.1933 36.8038C19.8463 35.306 19.1728 33.1315 19.1728 30.2775L19.1728 20.6528L7.77016 20.6528V17.5647L35 17.5647ZM21.4272 30.0202C21.4272 31.9065 21.9253 33.3682 22.9238 34.4053C23.92 35.4476 25.3138 35.97 27.1051 35.97C28.8684 35.97 30.2504 35.4476 31.249 34.4053C32.2452 33.3682 32.7457 31.9065 32.7457 30.0202V20.6528L21.4272 20.6528L21.4272 30.0202Z" fill="white"/>
<path d="M7.77016 352.721C7.77016 349.378 8.43664 346.9 9.77194 345.289C11.1049 343.675 13.1488 342.87 15.8989 342.87H26.8713C29.6214 342.87 31.6629 343.675 32.9982 345.289C34.3312 346.9 35 349.378 35 352.721L35 363.035H32.7457L32.7457 352.721C32.7457 350.407 32.2639 348.698 31.3051 347.594C30.344 346.496 28.866 345.947 26.8713 345.947H22.5122L22.5122 360.853H20.2579L20.2579 345.947H15.8989C13.9018 345.947 12.4238 346.496 11.465 347.594C10.5039 348.698 10.0245 350.407 10.0245 352.721V363.292H7.77016V352.721Z" fill="white"/>
<path d="M35 360.434V373.147C35 376.001 34.3265 378.175 32.9795 379.673C31.6325 381.176 29.6728 381.927 27.1051 381.927C24.5094 381.927 22.5403 381.176 21.1933 379.673C19.8463 378.175 19.1728 376.001 19.1728 373.147L19.1728 363.522H7.77016V360.434H35ZM21.4272 372.89C21.4272 374.776 21.9253 376.238 22.9238 377.275C23.92 378.317 25.3138 378.839 27.1051 378.839C28.8684 378.839 30.2504 378.317 31.249 377.275C32.2452 376.238 32.7457 374.776 32.7457 372.89V363.522H21.4272L21.4272 372.89Z" fill="white"/>
<path d="M7.77016 695.59C7.77016 692.247 8.43664 689.769 9.77194 688.158C11.1049 686.545 13.1488 685.739 15.8989 685.739H26.8713C29.6214 685.739 31.6629 686.545 32.9982 688.158C34.3312 689.769 35 692.247 35 695.59L35 705.905H32.7457L32.7457 695.59C32.7457 693.277 32.2639 691.568 31.3051 690.464C30.344 689.365 28.866 688.817 26.8713 688.817H22.5122L22.5122 703.722H20.2579L20.2579 688.817H15.8989C13.9018 688.817 12.4238 689.365 11.465 690.464C10.5039 691.568 10.0245 693.277 10.0245 695.59V706.162H7.77016V695.59Z" fill="white"/>
<path d="M35 703.304V716.017C35 718.87 34.3265 721.045 32.9795 722.543C31.6325 724.046 29.6728 724.797 27.1051 724.797C24.5094 724.797 22.5403 724.046 21.1933 722.543C19.8463 721.045 19.1728 718.87 19.1728 716.017L19.1728 706.392H7.77016V703.304H35ZM21.4272 715.759C21.4272 717.646 21.9253 719.107 22.9238 720.144C23.92 721.187 25.3138 721.709 27.1051 721.709C28.8684 721.709 30.2504 721.187 31.249 720.144C32.2452 719.107 32.7457 717.646 32.7457 715.759V706.392H21.4272L21.4272 715.759Z" fill="white"/>
<path d="M7.77016 78.4254C7.77016 75.0825 8.43664 72.6042 9.77194 70.9933C11.1049 69.3797 13.1488 68.5742 15.8989 68.5742H26.8713C29.6214 68.5742 31.6629 69.3797 32.9982 70.9933C34.3312 72.6042 35 75.0825 35 78.4254L35 88.7397H32.7457L32.7457 78.4254C32.7457 76.1118 32.2639 74.4031 31.3051 73.2991C30.344 72.2002 28.866 71.6521 26.8713 71.6521H22.5122L22.5122 86.5575H20.2579L20.2579 71.6521H15.8989C13.9018 71.6521 12.4238 72.2002 11.465 73.2991C10.5039 74.4031 10.0245 76.1118 10.0245 78.4254V88.9971H7.77016V78.4254Z" fill="white"/>
<path d="M35 86.1387V98.8515C35 101.705 34.3265 103.88 32.9795 105.378C31.6325 106.881 29.6728 107.632 27.1051 107.632C24.5094 107.632 22.5403 106.881 21.1933 105.378C19.8463 103.88 19.1728 101.705 19.1728 98.8515L19.1728 89.2268L7.77016 89.2268V86.1387L35 86.1387ZM21.4272 98.5941C21.4272 100.48 21.9253 101.942 22.9238 102.979C23.92 104.022 25.3138 104.544 27.1051 104.544C28.8684 104.544 30.2504 104.022 31.249 102.979C32.2452 101.942 32.7457 100.48 32.7457 98.5941V89.2268H21.4272L21.4272 98.5941Z" fill="white"/>
<path d="M7.77016 421.295C7.77016 417.952 8.43664 415.474 9.77194 413.863C11.1049 412.249 13.1488 411.444 15.8989 411.444H26.8713C29.6214 411.444 31.6629 412.249 32.9982 413.863C34.3312 415.474 35 417.952 35 421.295L35 431.609H32.7457L32.7457 421.295C32.7457 418.981 32.2639 417.272 31.3051 416.168C30.344 415.07 28.866 414.521 26.8713 414.521H22.5122L22.5122 429.427H20.2579L20.2579 414.521H15.8989C13.9018 414.521 12.4238 415.07 11.465 416.168C10.5039 417.272 10.0245 418.981 10.0245 421.295V431.866H7.77016V421.295Z" fill="white"/>
<path d="M35 429.008V441.721C35 444.575 34.3265 446.749 32.9795 448.247C31.6325 449.75 29.6728 450.501 27.1051 450.501C24.5094 450.501 22.5403 449.75 21.1933 448.247C19.8463 446.749 19.1728 444.575 19.1728 441.721L19.1728 432.096H7.77016V429.008H35ZM21.4272 441.464C21.4272 443.35 21.9253 444.812 22.9238 445.849C23.92 446.891 25.3138 447.413 27.1051 447.413C28.8684 447.413 30.2504 446.891 31.249 445.849C32.2452 444.812 32.7457 443.35 32.7457 441.464V432.096H21.4272L21.4272 441.464Z" fill="white"/>
<path d="M7.77016 764.164C7.77016 760.821 8.43664 758.343 9.77194 756.732C11.1049 755.118 13.1488 754.313 15.8989 754.313H26.8713C29.6214 754.313 31.6629 755.118 32.9982 756.732C34.3312 758.343 35 760.821 35 764.164L35 774.479H32.7457L32.7457 764.164C32.7457 761.851 32.2639 760.142 31.3051 759.038C30.344 757.939 28.866 757.391 26.8713 757.391H22.5122L22.5122 772.296H20.2579L20.2579 757.391H15.8989C13.9018 757.391 12.4238 757.939 11.465 759.038C10.5039 760.142 10.0245 761.851 10.0245 764.164V774.736H7.77016V764.164Z" fill="white"/>
<path d="M35 771.877V784.59C35 787.444 34.3265 789.619 32.9795 791.117C31.6325 792.619 29.6728 793.371 27.1051 793.371C24.5094 793.371 22.5403 792.619 21.1933 791.117C19.8463 789.619 19.1728 787.444 19.1728 784.59L19.1728 774.966H7.77016V771.877H35ZM21.4272 784.333C21.4272 786.219 21.9253 787.681 22.9238 788.718C23.92 789.76 25.3138 790.283 27.1051 790.283C28.8684 790.283 30.2504 789.76 31.249 788.718C32.2452 787.681 32.7457 786.219 32.7457 784.333V774.966H21.4272L21.4272 784.333Z" fill="white"/>
<path d="M7.77016 146.999C7.77016 143.656 8.43664 141.178 9.77194 139.567C11.1049 137.953 13.1488 137.148 15.8989 137.148H26.8713C29.6214 137.148 31.6629 137.953 32.9982 139.567C34.3312 141.178 35 143.656 35 146.999L35 157.313H32.7457L32.7457 146.999C32.7457 144.686 32.2639 142.977 31.3051 141.873C30.344 140.774 28.866 140.226 26.8713 140.226H22.5122L22.5122 155.131H20.2579L20.2579 140.226H15.8989C13.9018 140.226 12.4238 140.774 11.465 141.873C10.5039 142.977 10.0245 144.686 10.0245 146.999V157.571H7.77016V146.999Z" fill="white"/>
<path d="M35 154.712V167.425C35 170.279 34.3265 172.454 32.9795 173.951C31.6325 175.454 29.6728 176.206 27.1051 176.206C24.5094 176.206 22.5403 175.454 21.1933 173.951C19.8463 172.454 19.1728 170.279 19.1728 167.425L19.1728 157.801H7.77016V154.712H35ZM21.4272 167.168C21.4272 169.054 21.9253 170.516 22.9238 171.553C23.92 172.595 25.3138 173.118 27.1051 173.118C28.8684 173.118 30.2504 172.595 31.249 171.553C32.2452 170.516 32.7457 169.054 32.7457 167.168V157.801H21.4272L21.4272 167.168Z" fill="white"/>
<path d="M7.77016 489.869C7.77016 486.526 8.43664 484.048 9.77194 482.437C11.1049 480.823 13.1488 480.018 15.8989 480.018H26.8713C29.6214 480.018 31.6629 480.823 32.9982 482.437C34.3312 484.048 35 486.526 35 489.869L35 500.183H32.7457L32.7457 489.869C32.7457 487.555 32.2639 485.846 31.3051 484.742C30.344 483.644 28.866 483.095 26.8713 483.095H22.5122L22.5122 498.001H20.2579L20.2579 483.095H15.8989C13.9018 483.095 12.4238 483.644 11.465 484.742C10.5039 485.846 10.0245 487.555 10.0245 489.869V500.44H7.77016V489.869Z" fill="white"/>
<path d="M35 497.582V510.295C35 513.149 34.3265 515.323 32.9795 516.821C31.6325 518.324 29.6728 519.075 27.1051 519.075C24.5094 519.075 22.5403 518.324 21.1933 516.821C19.8463 515.323 19.1728 513.149 19.1728 510.295L19.1728 500.67H7.77016V497.582H35ZM21.4272 510.038C21.4272 511.924 21.9253 513.386 22.9238 514.423C23.92 515.465 25.3138 515.987 27.1051 515.987C28.8684 515.987 30.2504 515.465 31.249 514.423C32.2452 513.386 32.7457 511.924 32.7457 510.038V500.67H21.4272L21.4272 510.038Z" fill="white"/>
<path d="M7.77016 832.738C7.77016 829.395 8.43664 826.917 9.77194 825.306C11.1049 823.692 13.1488 822.887 15.8989 822.887H26.8713C29.6214 822.887 31.6629 823.692 32.9982 825.306C34.3312 826.917 35 829.395 35 832.738L35 843.052H32.7457L32.7457 832.738C32.7457 830.425 32.2639 828.716 31.3051 827.612C30.344 826.513 28.866 825.965 26.8713 825.965H22.5122L22.5122 840.87H20.2579L20.2579 825.965H15.8989C13.9018 825.965 12.4238 826.513 11.465 827.612C10.5039 828.716 10.0245 830.425 10.0245 832.738V843.31H7.77016V832.738Z" fill="white"/>
<path d="M35 840.451V853.164C35 856.018 34.3265 858.193 32.9795 859.69C31.6325 861.193 29.6728 861.945 27.1051 861.945C24.5094 861.945 22.5403 861.193 21.1933 859.69C19.8463 858.193 19.1728 856.018 19.1728 853.164L19.1728 843.54H7.77016V840.451H35ZM21.4272 852.907C21.4272 854.793 21.9253 856.255 22.9238 857.292C23.92 858.334 25.3138 858.857 27.1051 858.857C28.8684 858.857 30.2504 858.334 31.249 857.292C32.2452 856.255 32.7457 854.793 32.7457 852.907V843.54H21.4272L21.4272 852.907Z" fill="white"/>
<path d="M7.77016 215.573C7.77016 212.23 8.43664 209.752 9.77194 208.141C11.1049 206.527 13.1488 205.722 15.8989 205.722H26.8713C29.6214 205.722 31.6629 206.527 32.9982 208.141C34.3312 209.752 35 212.23 35 215.573L35 225.887H32.7457L32.7457 215.573C32.7457 213.26 32.2639 211.551 31.3051 210.447C30.344 209.348 28.866 208.8 26.8713 208.8H22.5122L22.5122 223.705H20.2579L20.2579 208.8H15.8989C13.9018 208.8 12.4238 209.348 11.465 210.447C10.5039 211.551 10.0245 213.26 10.0245 215.573V226.145H7.77016V215.573Z" fill="white"/>
<path d="M35 223.286V235.999C35 238.853 34.3265 241.028 32.9795 242.525C31.6325 244.028 29.6728 244.78 27.1051 244.78C24.5094 244.78 22.5403 244.028 21.1933 242.525C19.8463 241.028 19.1728 238.853 19.1728 235.999L19.1728 226.375H7.77016V223.286H35ZM21.4272 235.742C21.4272 237.628 21.9253 239.09 22.9238 240.127C23.92 241.169 25.3138 241.692 27.1051 241.692C28.8684 241.692 30.2504 241.169 31.249 240.127C32.2452 239.09 32.7457 237.628 32.7457 235.742V226.375H21.4272L21.4272 235.742Z" fill="white"/>
<path d="M7.77016 558.442C7.77016 555.1 8.43664 552.621 9.77194 551.01C11.1049 549.397 13.1488 548.591 15.8989 548.591H26.8713C29.6214 548.591 31.6629 549.397 32.9982 551.01C34.3312 552.621 35 555.1 35 558.442L35 568.757H32.7457L32.7457 558.442C32.7457 556.129 32.2639 554.42 31.3051 553.316C30.344 552.217 28.866 551.669 26.8713 551.669H22.5122L22.5122 566.575H20.2579L20.2579 551.669H15.8989C13.9018 551.669 12.4238 552.217 11.465 553.316C10.5039 554.42 10.0245 556.129 10.0245 558.442V569.014H7.77016V558.442Z" fill="white"/>
<path d="M35 566.156V578.869C35 581.723 34.3265 583.897 32.9795 585.395C31.6325 586.898 29.6728 587.649 27.1051 587.649C24.5094 587.649 22.5403 586.898 21.1933 585.395C19.8463 583.897 19.1728 581.723 19.1728 578.869L19.1728 569.244H7.77016V566.156H35ZM21.4272 578.611C21.4272 580.498 21.9253 581.959 22.9238 582.996C23.92 584.039 25.3138 584.561 27.1051 584.561C28.8684 584.561 30.2504 584.039 31.249 582.996C32.2452 581.959 32.7457 580.498 32.7457 578.611V569.244H21.4272L21.4272 578.611Z" fill="white"/>
<path d="M7.77016 901.312C7.77016 897.969 8.43664 895.491 9.77194 893.88C11.1049 892.266 13.1488 891.461 15.8989 891.461H26.8713C29.6214 891.461 31.6629 892.266 32.9982 893.88C34.3312 895.491 35 897.969 35 901.312L35 911.626H32.7457L32.7457 901.312C32.7457 898.999 32.2639 897.29 31.3051 896.186C30.344 895.087 28.866 894.539 26.8713 894.539H22.5122L22.5122 909.444H20.2579L20.2579 894.539H15.8989C13.9018 894.539 12.4238 895.087 11.465 896.186C10.5039 897.29 10.0245 898.999 10.0245 901.312V911.884H7.77016V901.312Z" fill="white"/>
<path d="M35 909.025V921.738C35 924.592 34.3265 926.767 32.9795 928.264C31.6325 929.767 29.6728 930.519 27.1051 930.519C24.5094 930.519 22.5403 929.767 21.1933 928.264C19.8463 926.767 19.1728 924.592 19.1728 921.738L19.1728 912.114H7.77016V909.025H35ZM21.4272 921.481C21.4272 923.367 21.9253 924.829 22.9238 925.866C23.92 926.908 25.3138 927.431 27.1051 927.431C28.8684 927.431 30.2504 926.908 31.249 925.866C32.2452 924.829 32.7457 923.367 32.7457 921.481V912.114H21.4272L21.4272 921.481Z" fill="white"/>
<path d="M7.77016 284.147C7.77016 280.804 8.43664 278.326 9.77194 276.715C11.1049 275.101 13.1488 274.296 15.8989 274.296H26.8713C29.6214 274.296 31.6629 275.101 32.9982 276.715C34.3312 278.326 35 280.804 35 284.147L35 294.461H32.7457L32.7457 284.147C32.7457 281.834 32.2639 280.125 31.3051 279.021C30.344 277.922 28.866 277.374 26.8713 277.374H22.5122L22.5122 292.279H20.2579L20.2579 277.374H15.8989C13.9018 277.374 12.4238 277.922 11.465 279.021C10.5039 280.125 10.0245 281.834 10.0245 284.147V294.719H7.77016V284.147Z" fill="white"/>
<path d="M35 291.86V304.573C35 307.427 34.3265 309.602 32.9795 311.099C31.6325 312.602 29.6728 313.354 27.1051 313.354C24.5094 313.354 22.5403 312.602 21.1933 311.099C19.8463 309.602 19.1728 307.427 19.1728 304.573L19.1728 294.948H7.77016V291.86H35ZM21.4272 304.316C21.4272 306.202 21.9253 307.664 22.9238 308.701C23.92 309.743 25.3138 310.266 27.1051 310.266C28.8684 310.266 30.2504 309.743 31.249 308.701C32.2452 307.664 32.7457 306.202 32.7457 304.316V294.948H21.4272L21.4272 304.316Z" fill="white"/>
<path d="M7.77016 627.016C7.77016 623.674 8.43664 621.195 9.77194 619.584C11.1049 617.971 13.1488 617.165 15.8989 617.165H26.8713C29.6214 617.165 31.6629 617.971 32.9982 619.584C34.3312 621.195 35 623.674 35 627.016L35 637.331H32.7457L32.7457 627.016C32.7457 624.703 32.2639 622.994 31.3051 621.89C30.344 620.791 28.866 620.243 26.8713 620.243H22.5122L22.5122 635.149H20.2579L20.2579 620.243H15.8989C13.9018 620.243 12.4238 620.791 11.465 621.89C10.5039 622.994 10.0245 624.703 10.0245 627.016V637.588H7.77016V627.016Z" fill="white"/>
<path d="M35 634.73V647.443C35 650.297 34.3265 652.471 32.9795 653.969C31.6325 655.472 29.6728 656.223 27.1051 656.223C24.5094 656.223 22.5403 655.472 21.1933 653.969C19.8463 652.471 19.1728 650.297 19.1728 647.443L19.1728 637.818H7.77016V634.73H35ZM21.4272 647.185C21.4272 649.072 21.9253 650.533 22.9238 651.57C23.92 652.613 25.3138 653.135 27.1051 653.135C28.8684 653.135 30.2504 652.613 31.249 651.57C32.2452 650.533 32.7457 649.072 32.7457 647.185V637.818H21.4272L21.4272 647.185Z" fill="white"/>
<path d="M7.77016 969.886C7.77016 966.543 8.43664 964.065 9.77194 962.454C11.1049 960.84 13.1488 960.035 15.8989 960.035H26.8713C29.6214 960.035 31.6629 960.84 32.9982 962.454C34.3312 964.065 35 966.543 35 969.886L35 980.2H32.7457L32.7457 969.886C32.7457 967.573 32.2639 965.864 31.3051 964.76C30.344 963.661 28.866 963.113 26.8713 963.113H22.5122L22.5122 978.018H20.2579L20.2579 963.113H15.8989C13.9018 963.113 12.4238 963.661 11.465 964.76C10.5039 965.864 10.0245 967.573 10.0245 969.886V980.458H7.77016V969.886Z" fill="white"/>
<path d="M35 977.599V990.312C35 993.166 34.3265 995.341 32.9795 996.838C31.6325 998.341 29.6728 999.093 27.1051 999.093C24.5094 999.093 22.5403 998.341 21.1933 996.838C19.8463 995.341 19.1728 993.166 19.1728 990.312L19.1728 980.687H7.77016V977.599H35ZM21.4272 990.055C21.4272 991.941 21.9253 993.403 22.9238 994.44C23.92 995.482 25.3138 996.005 27.1051 996.005C28.8684 996.005 30.2504 995.482 31.249 994.44C32.2452 993.403 32.7457 991.941 32.7457 990.055V980.687H21.4272L21.4272 990.055Z" fill="white"/>
</svg>
