<svg width="35" height="1024" viewBox="0 0 35 1024" fill="none" xmlns="http://www.w3.org/2000/svg">
<path d="M7.77016 54.1144C7.77016 57.4573 8.43664 59.9356 9.77194 61.5465C11.1049 63.1601 13.1488 63.9656 15.8989 63.9656H26.8713C29.6214 63.9656 31.6629 63.1601 32.9982 61.5465C34.3312 59.9356 35 57.4573 35 54.1144V43.8001H32.7457V54.1144C32.7457 56.428 32.2639 58.1367 31.3051 59.2407C30.344 60.3396 28.866 60.8877 26.8713 60.8877H22.5122V45.9823H20.2579V60.8877H15.8989C13.9018 60.8877 12.4238 60.3396 11.465 59.2407C10.5039 58.1367 10.0245 56.428 10.0245 54.1144L10.0245 43.5427H7.77016L7.77016 54.1144Z" fill="white"/>
<path d="M35 46.4011V33.6883C35 30.8344 34.3265 28.6598 32.9795 27.162C31.6325 25.6592 29.6728 24.9077 27.1051 24.9077C24.5094 24.9077 22.5403 25.6592 21.1933 27.162C19.8463 28.6598 19.1728 30.8344 19.1728 33.6883V43.313L7.77016 43.313V46.4011L35 46.4011ZM21.4272 33.9456C21.4272 32.0593 21.9253 30.5976 22.9238 29.5605C23.92 28.5183 25.3138 27.9958 27.1051 27.9958C28.8684 27.9958 30.2504 28.5183 31.249 29.5605C32.2452 30.5976 32.7457 32.0593 32.7457 33.9456V43.313H21.4272V33.9456Z" fill="white"/>
<path d="M7.77016 396.984C7.77016 400.327 8.43664 402.805 9.77194 404.416C11.1049 406.029 13.1488 406.835 15.8989 406.835H26.8713C29.6214 406.835 31.6629 406.029 32.9982 404.416C34.3312 402.805 35 400.327 35 396.984V386.669H32.7457V396.984C32.7457 399.297 32.2639 401.006 31.3051 402.11C30.344 403.209 28.866 403.757 26.8713 403.757H22.5122V388.852H20.2579V403.757H15.8989C13.9018 403.757 12.4238 403.209 11.465 402.11C10.5039 401.006 10.0245 399.297 10.0245 396.984L10.0245 386.412H7.77016L7.77016 396.984Z" fill="white"/>
<path d="M35 389.271V376.558C35 373.704 34.3265 371.529 32.9795 370.031C31.6325 368.529 29.6728 367.777 27.1051 367.777C24.5094 367.777 22.5403 368.529 21.1933 370.031C19.8463 371.529 19.1728 373.704 19.1728 376.558V386.182H7.77016V389.271H35ZM21.4272 376.815C21.4272 374.929 21.9253 373.467 22.9238 372.43C23.92 371.388 25.3138 370.865 27.1051 370.865C28.8684 370.865 30.2504 371.388 31.249 372.43C32.2452 373.467 32.7457 374.929 32.7457 376.815V386.182H21.4272V376.815Z" fill="white"/>
<path d="M7.77016 739.853C7.77016 743.196 8.43664 745.674 9.77194 747.285C11.1049 748.899 13.1488 749.704 15.8989 749.704H26.8713C29.6214 749.704 31.6629 748.899 32.9982 747.285C34.3312 745.674 35 743.196 35 739.853V729.539H32.7457V739.853C32.7457 742.167 32.2639 743.875 31.3051 744.98C30.344 746.078 28.866 746.627 26.8713 746.627H22.5122V731.721H20.2579V746.627H15.8989C13.9018 746.627 12.4238 746.078 11.465 744.98C10.5039 743.875 10.0245 742.167 10.0245 739.853L10.0245 729.281H7.77016L7.77016 739.853Z" fill="white"/>
<path d="M35 732.14V719.427C35 716.573 34.3265 714.399 32.9795 712.901C31.6325 711.398 29.6728 710.646 27.1051 710.646C24.5094 710.646 22.5403 711.398 21.1933 712.901C19.8463 714.399 19.1728 716.573 19.1728 719.427V729.052H7.77016V732.14H35ZM21.4272 719.684C21.4272 717.798 21.9253 716.336 22.9238 715.299C23.92 714.257 25.3138 713.735 27.1051 713.735C28.8684 713.735 30.2504 714.257 31.249 715.299C32.2452 716.336 32.7457 717.798 32.7457 719.684V729.052H21.4272V719.684Z" fill="white"/>
<path d="M7.77016 122.688C7.77016 126.031 8.43664 128.509 9.77194 130.12C11.1049 131.734 13.1488 132.539 15.8989 132.539H26.8713C29.6214 132.539 31.6629 131.734 32.9982 130.12C34.3312 128.509 35 126.031 35 122.688V112.374H32.7457V122.688C32.7457 125.002 32.2639 126.71 31.3051 127.814C30.344 128.913 28.866 129.461 26.8713 129.461H22.5122V114.556H20.2579V129.461H15.8989C13.9018 129.461 12.4238 128.913 11.465 127.814C10.5039 126.71 10.0245 125.002 10.0245 122.688L10.0245 112.116H7.77016L7.77016 122.688Z" fill="white"/>
<path d="M35 114.975V102.262C35 99.4081 34.3265 97.2335 32.9795 95.7358C31.6325 94.2329 29.6728 93.4814 27.1051 93.4814C24.5094 93.4814 22.5403 94.2329 21.1933 95.7358C19.8463 97.2335 19.1728 99.4081 19.1728 102.262V111.887H7.77016V114.975H35ZM21.4272 102.519C21.4272 100.633 21.9253 99.1713 22.9238 98.1342C23.92 97.092 25.3138 96.5696 27.1051 96.5696C28.8684 96.5696 30.2504 97.092 31.249 98.1342C32.2452 99.1713 32.7457 100.633 32.7457 102.519V111.887H21.4272V102.519Z" fill="white"/>
<path d="M7.77016 465.558C7.77016 468.901 8.43664 471.379 9.77194 472.99C11.1049 474.603 13.1488 475.409 15.8989 475.409H26.8713C29.6214 475.409 31.6629 474.603 32.9982 472.99C34.3312 471.379 35 468.901 35 465.558V455.243H32.7457V465.558C32.7457 467.871 32.2639 469.58 31.3051 470.684C30.344 471.783 28.866 472.331 26.8713 472.331H22.5122V457.426H20.2579V472.331H15.8989C13.9018 472.331 12.4238 471.783 11.465 470.684C10.5039 469.58 10.0245 467.871 10.0245 465.558L10.0245 454.986H7.77016L7.77016 465.558Z" fill="white"/>
<path d="M35 457.844V445.132C35 442.278 34.3265 440.103 32.9795 438.605C31.6325 437.103 29.6728 436.351 27.1051 436.351C24.5094 436.351 22.5403 437.103 21.1933 438.605C19.8463 440.103 19.1728 442.278 19.1728 445.132V454.756H7.77016V457.844H35ZM21.4272 445.389C21.4272 443.503 21.9253 442.041 22.9238 441.004C23.92 439.962 25.3138 439.439 27.1051 439.439C28.8684 439.439 30.2504 439.962 31.249 441.004C32.2452 442.041 32.7457 443.503 32.7457 445.389V454.756H21.4272V445.389Z" fill="white"/>
<path d="M7.77016 808.427C7.77016 811.77 8.43664 814.248 9.77194 815.859C11.1049 817.473 13.1488 818.278 15.8989 818.278H26.8713C29.6214 818.278 31.6629 817.473 32.9982 815.859C34.3312 814.248 35 811.77 35 808.427V798.113H32.7457V808.427C32.7457 810.741 32.2639 812.449 31.3051 813.553C30.344 814.652 28.866 815.2 26.8713 815.2H22.5122V800.295H20.2579V815.2H15.8989C13.9018 815.2 12.4238 814.652 11.465 813.553C10.5039 812.449 10.0245 810.741 10.0245 808.427L10.0245 797.855H7.77016L7.77016 808.427Z" fill="white"/>
<path d="M35 800.714V788.001C35 785.147 34.3265 782.973 32.9795 781.475C31.6325 779.972 29.6728 779.22 27.1051 779.22C24.5094 779.22 22.5403 779.972 21.1933 781.475C19.8463 782.973 19.1728 785.147 19.1728 788.001V797.626H7.77016V800.714H35ZM21.4272 788.258C21.4272 786.372 21.9253 784.91 22.9238 783.873C23.92 782.831 25.3138 782.309 27.1051 782.309C28.8684 782.309 30.2504 782.831 31.249 783.873C32.2452 784.91 32.7457 786.372 32.7457 788.258V797.626H21.4272V788.258Z" fill="white"/>
<path d="M7.77016 191.262C7.77016 194.605 8.43664 197.083 9.77194 198.694C11.1049 200.308 13.1488 201.113 15.8989 201.113H26.8713C29.6214 201.113 31.6629 200.308 32.9982 198.694C34.3312 197.083 35 194.605 35 191.262V180.948H32.7457V191.262C32.7457 193.576 32.2639 195.284 31.3051 196.388C30.344 197.487 28.866 198.035 26.8713 198.035H22.5122V183.13H20.2579V198.035H15.8989C13.9018 198.035 12.4238 197.487 11.465 196.388C10.5039 195.284 10.0245 193.576 10.0245 191.262L10.0245 180.69H7.77016L7.77016 191.262Z" fill="white"/>
<path d="M35 183.549V170.836C35 167.982 34.3265 165.807 32.9795 164.31C31.6325 162.807 29.6728 162.055 27.1051 162.055C24.5094 162.055 22.5403 162.807 21.1933 164.31C19.8463 165.807 19.1728 167.982 19.1728 170.836V180.461H7.77016V183.549H35ZM21.4272 171.093C21.4272 169.207 21.9253 167.745 22.9238 166.708C23.92 165.666 25.3138 165.144 27.1051 165.144C28.8684 165.144 30.2504 165.666 31.249 166.708C32.2452 167.745 32.7457 169.207 32.7457 171.093V180.461H21.4272V171.093Z" fill="white"/>
<path d="M7.77016 534.132C7.77016 537.474 8.43664 539.953 9.77194 541.564C11.1049 543.177 13.1488 543.983 15.8989 543.983H26.8713C29.6214 543.983 31.6629 543.177 32.9982 541.564C34.3312 539.953 35 537.474 35 534.132V523.817H32.7457V534.132C32.7457 536.445 32.2639 538.154 31.3051 539.258C30.344 540.357 28.866 540.905 26.8713 540.905H22.5122V525.999H20.2579V540.905H15.8989C13.9018 540.905 12.4238 540.357 11.465 539.258C10.5039 538.154 10.0245 536.445 10.0245 534.132L10.0245 523.56H7.77016L7.77016 534.132Z" fill="white"/>
<path d="M35 526.418V513.705C35 510.851 34.3265 508.677 32.9795 507.179C31.6325 505.676 29.6728 504.925 27.1051 504.925C24.5094 504.925 22.5403 505.676 21.1933 507.179C19.8463 508.677 19.1728 510.851 19.1728 513.705V523.33H7.77016V526.418H35ZM21.4272 513.963C21.4272 512.076 21.9253 510.615 22.9238 509.578C23.92 508.535 25.3138 508.013 27.1051 508.013C28.8684 508.013 30.2504 508.535 31.249 509.578C32.2452 510.615 32.7457 512.076 32.7457 513.963V523.33H21.4272V513.963Z" fill="white"/>
<path d="M7.77016 877.001C7.77016 880.344 8.43664 882.822 9.77194 884.433C11.1049 886.047 13.1488 886.852 15.8989 886.852H26.8713C29.6214 886.852 31.6629 886.047 32.9982 884.433C34.3312 882.822 35 880.344 35 877.001V866.687H32.7457V877.001C32.7457 879.315 32.2639 881.023 31.3051 882.127C30.344 883.226 28.866 883.774 26.8713 883.774H22.5122V868.869H20.2579V883.774H15.8989C13.9018 883.774 12.4238 883.226 11.465 882.127C10.5039 881.023 10.0245 879.315 10.0245 877.001L10.0245 866.429H7.77016L7.77016 877.001Z" fill="white"/>
<path d="M35 869.288V856.575C35 853.721 34.3265 851.547 32.9795 850.049C31.6325 848.546 29.6728 847.794 27.1051 847.794C24.5094 847.794 22.5403 848.546 21.1933 850.049C19.8463 851.547 19.1728 853.721 19.1728 856.575V866.2H7.77016V869.288H35ZM21.4272 856.832C21.4272 854.946 21.9253 853.484 22.9238 852.447C23.92 851.405 25.3138 850.883 27.1051 850.883C28.8684 850.883 30.2504 851.405 31.249 852.447C32.2452 853.484 32.7457 854.946 32.7457 856.832V866.2H21.4272V856.832Z" fill="white"/>
<path d="M7.77016 259.836C7.77016 263.179 8.43664 265.657 9.77194 267.268C11.1049 268.882 13.1488 269.687 15.8989 269.687H26.8713C29.6214 269.687 31.6629 268.882 32.9982 267.268C34.3312 265.657 35 263.179 35 259.836V249.522H32.7457V259.836C32.7457 262.15 32.2639 263.858 31.3051 264.962C30.344 266.061 28.866 266.609 26.8713 266.609H22.5122V251.704H20.2579V266.609H15.8989C13.9018 266.609 12.4238 266.061 11.465 264.962C10.5039 263.858 10.0245 262.15 10.0245 259.836L10.0245 249.264H7.77016L7.77016 259.836Z" fill="white"/>
<path d="M35 252.123V239.41C35 236.556 34.3265 234.381 32.9795 232.884C31.6325 231.381 29.6728 230.629 27.1051 230.629C24.5094 230.629 22.5403 231.381 21.1933 232.884C19.8463 234.381 19.1728 236.556 19.1728 239.41V249.035H7.77016V252.123H35ZM21.4272 239.667C21.4272 237.781 21.9253 236.319 22.9238 235.282C23.92 234.24 25.3138 233.718 27.1051 233.718C28.8684 233.718 30.2504 234.24 31.249 235.282C32.2452 236.319 32.7457 237.781 32.7457 239.667V249.035H21.4272V239.667Z" fill="white"/>
<path d="M7.77016 602.705C7.77016 606.048 8.43664 608.527 9.77194 610.138C11.1049 611.751 13.1488 612.557 15.8989 612.557H26.8713C29.6214 612.557 31.6629 611.751 32.9982 610.138C34.3312 608.527 35 606.048 35 602.705V592.391H32.7457V602.705C32.7457 605.019 32.2639 606.728 31.3051 607.832C30.344 608.931 28.866 609.479 26.8713 609.479H22.5122V594.573H20.2579V609.479H15.8989C13.9018 609.479 12.4238 608.931 11.465 607.832C10.5039 606.728 10.0245 605.019 10.0245 602.705L10.0245 592.134H7.77016L7.77016 602.705Z" fill="white"/>
<path d="M35 594.992V582.279C35 579.425 34.3265 577.251 32.9795 575.753C31.6325 574.25 29.6728 573.499 27.1051 573.499C24.5094 573.499 22.5403 574.25 21.1933 575.753C19.8463 577.251 19.1728 579.425 19.1728 582.279V591.904H7.77016V594.992H35ZM21.4272 582.537C21.4272 580.65 21.9253 579.189 22.9238 578.152C23.92 577.109 25.3138 576.587 27.1051 576.587C28.8684 576.587 30.2504 577.109 31.249 578.152C32.2452 579.189 32.7457 580.65 32.7457 582.537V591.904H21.4272V582.537Z" fill="white"/>
<path d="M7.77016 945.575C7.77016 948.918 8.43664 951.396 9.77194 953.007C11.1049 954.621 13.1488 955.426 15.8989 955.426H26.8713C29.6214 955.426 31.6629 954.621 32.9982 953.007C34.3312 951.396 35 948.918 35 945.575V935.261H32.7457V945.575C32.7457 947.888 32.2639 949.597 31.3051 950.701C30.344 951.8 28.866 952.348 26.8713 952.348H22.5122V937.443H20.2579V952.348H15.8989C13.9018 952.348 12.4238 951.8 11.465 950.701C10.5039 949.597 10.0245 947.888 10.0245 945.575L10.0245 935.003H7.77016L7.77016 945.575Z" fill="white"/>
<path d="M35 937.862V925.149C35 922.295 34.3265 920.12 32.9795 918.622C31.6325 917.12 29.6728 916.368 27.1051 916.368C24.5094 916.368 22.5403 917.12 21.1933 918.622C19.8463 920.12 19.1728 922.295 19.1728 925.149V934.773H7.77016V937.862H35ZM21.4272 925.406C21.4272 923.52 21.9253 922.058 22.9238 921.021C23.92 919.979 25.3138 919.456 27.1051 919.456C28.8684 919.456 30.2504 919.979 31.249 921.021C32.2452 922.058 32.7457 923.52 32.7457 925.406V934.773H21.4272V925.406Z" fill="white"/>
<path d="M7.77016 328.41C7.77016 331.753 8.43664 334.231 9.77194 335.842C11.1049 337.455 13.1488 338.261 15.8989 338.261H26.8713C29.6214 338.261 31.6629 337.455 32.9982 335.842C34.3312 334.231 35 331.753 35 328.41V318.095H32.7457V328.41C32.7457 330.723 32.2639 332.432 31.3051 333.536C30.344 334.635 28.866 335.183 26.8713 335.183H22.5122V320.278H20.2579V335.183H15.8989C13.9018 335.183 12.4238 334.635 11.465 333.536C10.5039 332.432 10.0245 330.723 10.0245 328.41L10.0245 317.838H7.77016L7.77016 328.41Z" fill="white"/>
<path d="M35 320.697V307.984C35 305.13 34.3265 302.955 32.9795 301.457C31.6325 299.955 29.6728 299.203 27.1051 299.203C24.5094 299.203 22.5403 299.955 21.1933 301.457C19.8463 302.955 19.1728 305.13 19.1728 307.984V317.608H7.77016V320.697H35ZM21.4272 308.241C21.4272 306.355 21.9253 304.893 22.9238 303.856C23.92 302.814 25.3138 302.291 27.1051 302.291C28.8684 302.291 30.2504 302.814 31.249 303.856C32.2452 304.893 32.7457 306.355 32.7457 308.241V317.608H21.4272V308.241Z" fill="white"/>
<path d="M7.77016 671.279C7.77016 674.622 8.43664 677.101 9.77194 678.712C11.1049 680.325 13.1488 681.131 15.8989 681.131H26.8713C29.6214 681.131 31.6629 680.325 32.9982 678.712C34.3312 677.101 35 674.622 35 671.279V660.965H32.7457V671.279C32.7457 673.593 32.2639 675.302 31.3051 676.406C30.344 677.505 28.866 678.053 26.8713 678.053H22.5122V663.147H20.2579V678.053H15.8989C13.9018 678.053 12.4238 677.505 11.465 676.406C10.5039 675.302 10.0245 673.593 10.0245 671.279L10.0245 660.708H7.77016L7.77016 671.279Z" fill="white"/>
<path d="M35 663.566V650.853C35 647.999 34.3265 645.825 32.9795 644.327C31.6325 642.824 29.6728 642.073 27.1051 642.073C24.5094 642.073 22.5403 642.824 21.1933 644.327C19.8463 645.825 19.1728 647.999 19.1728 650.853V660.478H7.77016V663.566H35ZM21.4272 651.111C21.4272 649.224 21.9253 647.763 22.9238 646.726C23.92 645.683 25.3138 645.161 27.1051 645.161C28.8684 645.161 30.2504 645.683 31.249 646.726C32.2452 647.763 32.7457 649.224 32.7457 651.111V660.478H21.4272V651.111Z" fill="white"/>
<path d="M7.77016 1014.15C7.77016 1017.49 8.43664 1019.97 9.77194 1021.58C11.1049 1023.19 13.1488 1024 15.8989 1024H26.8713C29.6214 1024 31.6629 1023.19 32.9982 1021.58C34.3312 1019.97 35 1017.49 35 1014.15V1003.83H32.7457V1014.15C32.7457 1016.46 32.2639 1018.17 31.3051 1019.28C30.344 1020.37 28.866 1020.92 26.8713 1020.92H22.5122V1006.02H20.2579V1020.92H15.8989C13.9018 1020.92 12.4238 1020.37 11.465 1019.28C10.5039 1018.17 10.0245 1016.46 10.0245 1014.15L10.0245 1003.58H7.77016L7.77016 1014.15Z" fill="white"/>
<path d="M35 1006.44V993.723C35 990.869 34.3265 988.694 32.9795 987.196C31.6325 985.694 29.6728 984.942 27.1051 984.942C24.5094 984.942 22.5403 985.694 21.1933 987.196C19.8463 988.694 19.1728 990.869 19.1728 993.723V1003.35H7.77016V1006.44H35ZM21.4272 993.98C21.4272 992.094 21.9253 990.632 22.9238 989.595C23.92 988.553 25.3138 988.03 27.1051 988.03C28.8684 988.03 30.2504 988.553 31.249 989.595C32.2452 990.632 32.7457 992.094 32.7457 993.98V1003.35H21.4272V993.98Z" fill="white"/>
<path d="M27.2298 9.85139C27.2298 6.50849 26.5634 4.03026 25.2281 2.41928C23.8951 0.805732 21.8512 0.000244141 19.1011 0.000244141L8.12873 0.000244141C5.37862 0.000244141 3.33708 0.805732 2.00178 2.41928C0.668819 4.03026 0 6.50849 0 9.85139L0 20.1658H2.25434L2.25434 9.85139C2.25434 7.53786 2.73608 5.8291 3.69488 4.72509C4.65601 3.62623 6.13396 3.07808 8.12873 3.07808L12.4878 3.07808L12.4878 17.9835H14.7421L14.7421 3.07808L19.1011 3.07808C21.0982 3.07808 22.5762 3.62623 23.535 4.72509C24.4961 5.8291 24.9755 7.53786 24.9755 9.85139V20.4231H27.2298V9.85139Z" fill="white"/>
<path d="M0 17.5647L0 30.2775C0 33.1315 0.673497 35.306 2.02049 36.8038C3.36748 38.3067 5.32717 39.0581 7.89488 39.0581C10.4906 39.0581 12.4597 38.3067 13.8067 36.8038C15.1537 35.306 15.8272 33.1315 15.8272 30.2775L15.8272 20.6528L27.2298 20.6528V17.5647L0 17.5647ZM13.5728 30.0202C13.5728 31.9065 13.0747 33.3682 12.0762 34.4053C11.08 35.4476 9.68619 35.97 7.89488 35.97C6.13163 35.97 4.74955 35.4476 3.751 34.4053C2.75479 33.3682 2.25434 31.9065 2.25434 30.0202L2.25434 20.6528L13.5728 20.6528L13.5728 30.0202Z" fill="white"/>
<path d="M27.2298 352.721C27.2298 349.378 26.5634 346.9 25.2281 345.289C23.8951 343.675 21.8512 342.87 19.1011 342.87H8.12873C5.37862 342.87 3.33708 343.675 2.00178 345.289C0.668819 346.9 0 349.378 0 352.721L0 363.035H2.25434L2.25434 352.721C2.25434 350.407 2.73608 348.698 3.69488 347.594C4.65601 346.496 6.13396 345.947 8.12873 345.947H12.4878L12.4878 360.853H14.7421L14.7421 345.947H19.1011C21.0982 345.947 22.5762 346.496 23.535 347.594C24.4961 348.698 24.9755 350.407 24.9755 352.721V363.292H27.2298V352.721Z" fill="white"/>
<path d="M0 360.434L0 373.147C0 376.001 0.673497 378.175 2.02049 379.673C3.36748 381.176 5.32717 381.927 7.89488 381.927C10.4906 381.927 12.4597 381.176 13.8067 379.673C15.1537 378.175 15.8272 376.001 15.8272 373.147L15.8272 363.522H27.2298V360.434H0ZM13.5728 372.89C13.5728 374.776 13.0747 376.238 12.0762 377.275C11.08 378.317 9.68619 378.839 7.89488 378.839C6.13163 378.839 4.74955 378.317 3.751 377.275C2.75479 376.238 2.25434 374.776 2.25434 372.89L2.25434 363.522H13.5728L13.5728 372.89Z" fill="white"/>
<path d="M27.2298 695.59C27.2298 692.247 26.5634 689.769 25.2281 688.158C23.8951 686.545 21.8512 685.739 19.1011 685.739H8.12873C5.37862 685.739 3.33708 686.545 2.00178 688.158C0.668819 689.769 0 692.247 0 695.59L0 705.905H2.25434L2.25434 695.59C2.25434 693.277 2.73608 691.568 3.69488 690.464C4.65601 689.365 6.13396 688.817 8.12873 688.817H12.4878L12.4878 703.722H14.7421L14.7421 688.817H19.1011C21.0982 688.817 22.5762 689.365 23.535 690.464C24.4961 691.568 24.9755 693.277 24.9755 695.59V706.162H27.2298V695.59Z" fill="white"/>
<path d="M0 703.304L0 716.017C0 718.87 0.673497 721.045 2.02049 722.543C3.36748 724.046 5.32717 724.797 7.89488 724.797C10.4906 724.797 12.4597 724.046 13.8067 722.543C15.1537 721.045 15.8272 718.87 15.8272 716.017L15.8272 706.392H27.2298V703.304H0ZM13.5728 715.759C13.5728 717.646 13.0747 719.107 12.0762 720.144C11.08 721.187 9.68619 721.709 7.89488 721.709C6.13163 721.709 4.74955 721.187 3.751 720.144C2.75479 719.107 2.25434 717.646 2.25434 715.759L2.25434 706.392H13.5728L13.5728 715.759Z" fill="white"/>
<path d="M27.2298 78.4254C27.2298 75.0825 26.5634 72.6042 25.2281 70.9933C23.8951 69.3797 21.8512 68.5742 19.1011 68.5742H8.12873C5.37862 68.5742 3.33708 69.3797 2.00178 70.9933C0.668819 72.6042 0 75.0825 0 78.4254L0 88.7397H2.25434L2.25434 78.4254C2.25434 76.1118 2.73608 74.4031 3.69488 73.2991C4.65601 72.2002 6.13396 71.6521 8.12873 71.6521H12.4878L12.4878 86.5575H14.7421L14.7421 71.6521H19.1011C21.0982 71.6521 22.5762 72.2002 23.535 73.2991C24.4961 74.4031 24.9755 76.1118 24.9755 78.4254V88.9971H27.2298V78.4254Z" fill="white"/>
<path d="M0 86.1387L0 98.8515C0 101.705 0.673497 103.88 2.02049 105.378C3.36748 106.881 5.32717 107.632 7.89488 107.632C10.4906 107.632 12.4597 106.881 13.8067 105.378C15.1537 103.88 15.8272 101.705 15.8272 98.8515L15.8272 89.2268L27.2298 89.2268V86.1387L0 86.1387ZM13.5728 98.5941C13.5728 100.48 13.0747 101.942 12.0762 102.979C11.08 104.022 9.68619 104.544 7.89488 104.544C6.13163 104.544 4.74955 104.022 3.751 102.979C2.75479 101.942 2.25434 100.48 2.25434 98.5941L2.25434 89.2268H13.5728L13.5728 98.5941Z" fill="white"/>
<path d="M27.2298 421.295C27.2298 417.952 26.5634 415.474 25.2281 413.863C23.8951 412.249 21.8512 411.444 19.1011 411.444H8.12873C5.37862 411.444 3.33708 412.249 2.00178 413.863C0.668819 415.474 0 417.952 0 421.295L0 431.609H2.25434L2.25434 421.295C2.25434 418.981 2.73608 417.272 3.69488 416.168C4.65601 415.07 6.13396 414.521 8.12873 414.521H12.4878L12.4878 429.427H14.7421L14.7421 414.521H19.1011C21.0982 414.521 22.5762 415.07 23.535 416.168C24.4961 417.272 24.9755 418.981 24.9755 421.295V431.866H27.2298V421.295Z" fill="white"/>
<path d="M0 429.008L0 441.721C0 444.575 0.673497 446.749 2.02049 448.247C3.36748 449.75 5.32717 450.501 7.89488 450.501C10.4906 450.501 12.4597 449.75 13.8067 448.247C15.1537 446.749 15.8272 444.575 15.8272 441.721L15.8272 432.096H27.2298V429.008H0ZM13.5728 441.464C13.5728 443.35 13.0747 444.812 12.0762 445.849C11.08 446.891 9.68619 447.413 7.89488 447.413C6.13163 447.413 4.74955 446.891 3.751 445.849C2.75479 444.812 2.25434 443.35 2.25434 441.464L2.25434 432.096H13.5728L13.5728 441.464Z" fill="white"/>
<path d="M27.2298 764.164C27.2298 760.821 26.5634 758.343 25.2281 756.732C23.8951 755.118 21.8512 754.313 19.1011 754.313H8.12873C5.37862 754.313 3.33708 755.118 2.00178 756.732C0.668819 758.343 0 760.821 0 764.164L0 774.479H2.25434L2.25434 764.164C2.25434 761.851 2.73608 760.142 3.69488 759.038C4.65601 757.939 6.13396 757.391 8.12873 757.391H12.4878L12.4878 772.296H14.7421L14.7421 757.391H19.1011C21.0982 757.391 22.5762 757.939 23.535 759.038C24.4961 760.142 24.9755 761.851 24.9755 764.164V774.736H27.2298V764.164Z" fill="white"/>
<path d="M0 771.877L0 784.59C0 787.444 0.673497 789.619 2.02049 791.117C3.36748 792.619 5.32717 793.371 7.89488 793.371C10.4906 793.371 12.4597 792.619 13.8067 791.117C15.1537 789.619 15.8272 787.444 15.8272 784.59L15.8272 774.966H27.2298V771.877H0ZM13.5728 784.333C13.5728 786.219 13.0747 787.681 12.0762 788.718C11.08 789.76 9.68619 790.283 7.89488 790.283C6.13163 790.283 4.74955 789.76 3.751 788.718C2.75479 787.681 2.25434 786.219 2.25434 784.333L2.25434 774.966H13.5728L13.5728 784.333Z" fill="white"/>
<path d="M27.2298 146.999C27.2298 143.656 26.5634 141.178 25.2281 139.567C23.8951 137.953 21.8512 137.148 19.1011 137.148H8.12873C5.37862 137.148 3.33708 137.953 2.00178 139.567C0.668819 141.178 0 143.656 0 146.999L0 157.313H2.25434L2.25434 146.999C2.25434 144.686 2.73608 142.977 3.69488 141.873C4.65601 140.774 6.13396 140.226 8.12873 140.226H12.4878L12.4878 155.131H14.7421L14.7421 140.226H19.1011C21.0982 140.226 22.5762 140.774 23.535 141.873C24.4961 142.977 24.9755 144.686 24.9755 146.999V157.571H27.2298V146.999Z" fill="white"/>
<path d="M0 154.712L0 167.425C0 170.279 0.673497 172.454 2.02049 173.951C3.36748 175.454 5.32717 176.206 7.89488 176.206C10.4906 176.206 12.4597 175.454 13.8067 173.951C15.1537 172.454 15.8272 170.279 15.8272 167.425L15.8272 157.801H27.2298V154.712H0ZM13.5728 167.168C13.5728 169.054 13.0747 170.516 12.0762 171.553C11.08 172.595 9.68619 173.118 7.89488 173.118C6.13163 173.118 4.74955 172.595 3.751 171.553C2.75479 170.516 2.25434 169.054 2.25434 167.168L2.25434 157.801H13.5728L13.5728 167.168Z" fill="white"/>
<path d="M27.2298 489.869C27.2298 486.526 26.5634 484.048 25.2281 482.437C23.8951 480.823 21.8512 480.018 19.1011 480.018H8.12873C5.37862 480.018 3.33708 480.823 2.00178 482.437C0.668819 484.048 0 486.526 0 489.869L0 500.183H2.25434L2.25434 489.869C2.25434 487.555 2.73608 485.846 3.69488 484.742C4.65601 483.644 6.13396 483.095 8.12873 483.095H12.4878L12.4878 498.001H14.7421L14.7421 483.095H19.1011C21.0982 483.095 22.5762 483.644 23.535 484.742C24.4961 485.846 24.9755 487.555 24.9755 489.869V500.44H27.2298V489.869Z" fill="white"/>
<path d="M0 497.582L0 510.295C0 513.149 0.673497 515.323 2.02049 516.821C3.36748 518.324 5.32717 519.075 7.89488 519.075C10.4906 519.075 12.4597 518.324 13.8067 516.821C15.1537 515.323 15.8272 513.149 15.8272 510.295L15.8272 500.67H27.2298V497.582H0ZM13.5728 510.038C13.5728 511.924 13.0747 513.386 12.0762 514.423C11.08 515.465 9.68619 515.987 7.89488 515.987C6.13163 515.987 4.74955 515.465 3.751 514.423C2.75479 513.386 2.25434 511.924 2.25434 510.038L2.25434 500.67H13.5728L13.5728 510.038Z" fill="white"/>
<path d="M27.2298 832.738C27.2298 829.395 26.5634 826.917 25.2281 825.306C23.8951 823.692 21.8512 822.887 19.1011 822.887H8.12873C5.37862 822.887 3.33708 823.692 2.00178 825.306C0.668819 826.917 0 829.395 0 832.738L0 843.052H2.25434L2.25434 832.738C2.25434 830.425 2.73608 828.716 3.69488 827.612C4.65601 826.513 6.13396 825.965 8.12873 825.965H12.4878L12.4878 840.87H14.7421L14.7421 825.965H19.1011C21.0982 825.965 22.5762 826.513 23.535 827.612C24.4961 828.716 24.9755 830.425 24.9755 832.738V843.31H27.2298V832.738Z" fill="white"/>
<path d="M0 840.451L0 853.164C0 856.018 0.673497 858.193 2.02049 859.69C3.36748 861.193 5.32717 861.945 7.89488 861.945C10.4906 861.945 12.4597 861.193 13.8067 859.69C15.1537 858.193 15.8272 856.018 15.8272 853.164L15.8272 843.54H27.2298V840.451H0ZM13.5728 852.907C13.5728 854.793 13.0747 856.255 12.0762 857.292C11.08 858.334 9.68619 858.857 7.89488 858.857C6.13163 858.857 4.74955 858.334 3.751 857.292C2.75479 856.255 2.25434 854.793 2.25434 852.907L2.25434 843.54H13.5728L13.5728 852.907Z" fill="white"/>
<path d="M27.2298 215.573C27.2298 212.23 26.5634 209.752 25.2281 208.141C23.8951 206.527 21.8512 205.722 19.1011 205.722H8.12873C5.37862 205.722 3.33708 206.527 2.00178 208.141C0.668819 209.752 0 212.23 0 215.573L0 225.887H2.25434L2.25434 215.573C2.25434 213.26 2.73608 211.551 3.69488 210.447C4.65601 209.348 6.13396 208.8 8.12873 208.8H12.4878L12.4878 223.705H14.7421L14.7421 208.8H19.1011C21.0982 208.8 22.5762 209.348 23.535 210.447C24.4961 211.551 24.9755 213.26 24.9755 215.573V226.145H27.2298V215.573Z" fill="white"/>
<path d="M0 223.286L0 235.999C0 238.853 0.673497 241.028 2.02049 242.525C3.36748 244.028 5.32717 244.78 7.89488 244.78C10.4906 244.78 12.4597 244.028 13.8067 242.525C15.1537 241.028 15.8272 238.853 15.8272 235.999L15.8272 226.375H27.2298V223.286H0ZM13.5728 235.742C13.5728 237.628 13.0747 239.09 12.0762 240.127C11.08 241.169 9.68619 241.692 7.89488 241.692C6.13163 241.692 4.74955 241.169 3.751 240.127C2.75479 239.09 2.25434 237.628 2.25434 235.742L2.25434 226.375H13.5728L13.5728 235.742Z" fill="white"/>
<path d="M27.2298 558.442C27.2298 555.1 26.5634 552.621 25.2281 551.01C23.8951 549.397 21.8512 548.591 19.1011 548.591H8.12873C5.37862 548.591 3.33708 549.397 2.00178 551.01C0.668819 552.621 0 555.1 0 558.442L0 568.757H2.25434L2.25434 558.442C2.25434 556.129 2.73608 554.42 3.69488 553.316C4.65601 552.217 6.13396 551.669 8.12873 551.669H12.4878L12.4878 566.575H14.7421L14.7421 551.669H19.1011C21.0982 551.669 22.5762 552.217 23.535 553.316C24.4961 554.42 24.9755 556.129 24.9755 558.442V569.014H27.2298V558.442Z" fill="white"/>
<path d="M0 566.156L0 578.869C0 581.723 0.673497 583.897 2.02049 585.395C3.36748 586.898 5.32717 587.649 7.89488 587.649C10.4906 587.649 12.4597 586.898 13.8067 585.395C15.1537 583.897 15.8272 581.723 15.8272 578.869L15.8272 569.244H27.2298V566.156H0ZM13.5728 578.611C13.5728 580.498 13.0747 581.959 12.0762 582.996C11.08 584.039 9.68619 584.561 7.89488 584.561C6.13163 584.561 4.74955 584.039 3.751 582.996C2.75479 581.959 2.25434 580.498 2.25434 578.611L2.25434 569.244H13.5728L13.5728 578.611Z" fill="white"/>
<path d="M27.2298 901.312C27.2298 897.969 26.5634 895.491 25.2281 893.88C23.8951 892.266 21.8512 891.461 19.1011 891.461H8.12873C5.37862 891.461 3.33708 892.266 2.00178 893.88C0.668819 895.491 0 897.969 0 901.312L0 911.626H2.25434L2.25434 901.312C2.25434 898.999 2.73608 897.29 3.69488 896.186C4.65601 895.087 6.13396 894.539 8.12873 894.539H12.4878L12.4878 909.444H14.7421L14.7421 894.539H19.1011C21.0982 894.539 22.5762 895.087 23.535 896.186C24.4961 897.29 24.9755 898.999 24.9755 901.312V911.884H27.2298V901.312Z" fill="white"/>
<path d="M0 909.025L0 921.738C0 924.592 0.673497 926.767 2.02049 928.264C3.36748 929.767 5.32717 930.519 7.89488 930.519C10.4906 930.519 12.4597 929.767 13.8067 928.264C15.1537 926.767 15.8272 924.592 15.8272 921.738L15.8272 912.114H27.2298V909.025H0ZM13.5728 921.481C13.5728 923.367 13.0747 924.829 12.0762 925.866C11.08 926.908 9.68619 927.431 7.89488 927.431C6.13163 927.431 4.74955 926.908 3.751 925.866C2.75479 924.829 2.25434 923.367 2.25434 921.481L2.25434 912.114H13.5728L13.5728 921.481Z" fill="white"/>
<path d="M27.2298 284.147C27.2298 280.804 26.5634 278.326 25.2281 276.715C23.8951 275.101 21.8512 274.296 19.1011 274.296H8.12873C5.37862 274.296 3.33708 275.101 2.00178 276.715C0.668819 278.326 0 280.804 0 284.147L0 294.461H2.25434L2.25434 284.147C2.25434 281.834 2.73608 280.125 3.69488 279.021C4.65601 277.922 6.13396 277.374 8.12873 277.374H12.4878L12.4878 292.279H14.7421L14.7421 277.374H19.1011C21.0982 277.374 22.5762 277.922 23.535 279.021C24.4961 280.125 24.9755 281.834 24.9755 284.147V294.719H27.2298V284.147Z" fill="white"/>
<path d="M0 291.86L0 304.573C0 307.427 0.673497 309.602 2.02049 311.099C3.36748 312.602 5.32717 313.354 7.89488 313.354C10.4906 313.354 12.4597 312.602 13.8067 311.099C15.1537 309.602 15.8272 307.427 15.8272 304.573L15.8272 294.948H27.2298V291.86H0ZM13.5728 304.316C13.5728 306.202 13.0747 307.664 12.0762 308.701C11.08 309.743 9.68619 310.266 7.89488 310.266C6.13163 310.266 4.74955 309.743 3.751 308.701C2.75479 307.664 2.25434 306.202 2.25434 304.316L2.25434 294.948H13.5728L13.5728 304.316Z" fill="white"/>
<path d="M27.2298 627.016C27.2298 623.674 26.5634 621.195 25.2281 619.584C23.8951 617.971 21.8512 617.165 19.1011 617.165H8.12873C5.37862 617.165 3.33708 617.971 2.00178 619.584C0.668819 621.195 0 623.674 0 627.016L0 637.331H2.25434L2.25434 627.016C2.25434 624.703 2.73608 622.994 3.69488 621.89C4.65601 620.791 6.13396 620.243 8.12873 620.243H12.4878L12.4878 635.149H14.7421L14.7421 620.243H19.1011C21.0982 620.243 22.5762 620.791 23.535 621.89C24.4961 622.994 24.9755 624.703 24.9755 627.016V637.588H27.2298V627.016Z" fill="white"/>
<path d="M0 634.73L0 647.443C0 650.297 0.673497 652.471 2.02049 653.969C3.36748 655.472 5.32717 656.223 7.89488 656.223C10.4906 656.223 12.4597 655.472 13.8067 653.969C15.1537 652.471 15.8272 650.297 15.8272 647.443L15.8272 637.818H27.2298V634.73H0ZM13.5728 647.185C13.5728 649.072 13.0747 650.533 12.0762 651.57C11.08 652.613 9.68619 653.135 7.89488 653.135C6.13163 653.135 4.74955 652.613 3.751 651.57C2.75479 650.533 2.25434 649.072 2.25434 647.185L2.25434 637.818H13.5728L13.5728 647.185Z" fill="white"/>
<path d="M27.2298 969.886C27.2298 966.543 26.5634 964.065 25.2281 962.454C23.8951 960.84 21.8512 960.035 19.1011 960.035H8.12873C5.37862 960.035 3.33708 960.84 2.00178 962.454C0.668819 964.065 0 966.543 0 969.886L0 980.2H2.25434L2.25434 969.886C2.25434 967.573 2.73608 965.864 3.69488 964.76C4.65601 963.661 6.13396 963.113 8.12873 963.113H12.4878L12.4878 978.018H14.7421L14.7421 963.113H19.1011C21.0982 963.113 22.5762 963.661 23.535 964.76C24.4961 965.864 24.9755 967.573 24.9755 969.886V980.458H27.2298V969.886Z" fill="white"/>
<path d="M0 977.599L0 990.312C0 993.166 0.673497 995.341 2.02049 996.838C3.36748 998.341 5.32717 999.093 7.89488 999.093C10.4906 999.093 12.4597 998.341 13.8067 996.838C15.1537 995.341 15.8272 993.166 15.8272 990.312L15.8272 980.687H27.2298V977.599H0ZM13.5728 990.055C13.5728 991.941 13.0747 993.403 12.0762 994.44C11.08 995.482 9.68619 996.005 7.89488 996.005C6.13163 996.005 4.74955 995.482 3.751 994.44C2.75479 993.403 2.25434 991.941 2.25434 990.055L2.25434 980.687H13.5728L13.5728 990.055Z" fill="white"/>
</svg>
