<svg width="31" height="31" viewBox="0 0 31 31" fill="none" xmlns="http://www.w3.org/2000/svg">
<path fill-rule="evenodd" clip-rule="evenodd" d="M23.7368 0.435059C28.0658 0.435059 30.8738 3.24306 30.8738 7.57206V23.25C30.8738 27.579 28.0658 30.387 23.7368 30.387H8.05888C3.72987 30.387 0.921875 27.579 0.921875 23.25V7.57206C0.921875 3.24306 3.72987 0.435059 8.05888 0.435059H23.7368Z" fill="url(#paint0_linear_4036_472)"/>
<mask id="mask0_4036_472" style="mask-type:alpha" maskUnits="userSpaceOnUse" x="0" y="0" width="31" height="31">
<path fill-rule="evenodd" clip-rule="evenodd" d="M23.7388 0.435059C28.0678 0.435059 30.8758 3.24306 30.8758 7.57206V23.25C30.8758 27.579 28.0678 30.387 23.7388 30.387H8.06083C3.73183 30.387 0.923828 27.579 0.923828 23.25V7.57206C0.923828 3.24306 3.73183 0.435059 8.06083 0.435059H23.7388Z" fill="white"/>
</mask>
<g mask="url(#mask0_4036_472)">
<path fill-rule="evenodd" clip-rule="evenodd" d="M9.96416 44.2516C21.6276 44.2516 31.0826 34.7965 31.0826 23.1331C31.0826 11.4697 21.6276 2.01465 9.96416 2.01465C-1.69924 2.01465 -11.1543 11.4697 -11.1543 23.1331C-11.1543 34.7965 -1.69924 44.2516 9.96416 44.2516Z" fill="url(#paint1_radial_4036_472)"/>
</g>
<g filter="url(#filter0_d_4036_472)">
<path fill-rule="evenodd" clip-rule="evenodd" d="M11.2232 6.54847C8.84853 6.54847 6.92347 8.47353 6.92347 10.8482V20.1497C6.92347 22.5244 8.84853 24.4495 11.2232 24.4495H20.6417C23.0164 24.4495 24.9415 22.5244 24.9415 20.1497V10.8482C24.9415 8.47353 23.0164 6.54847 20.6417 6.54847H11.2232ZM4.87598 10.8482C4.87598 7.34273 7.71773 4.50098 11.2232 4.50098H20.6417C24.1472 4.50098 26.9889 7.34273 26.9889 10.8482V20.1497C26.9889 23.6552 24.1472 26.497 20.6417 26.497H11.2232C7.71773 26.497 4.87598 23.6552 4.87598 20.1497V10.8482Z" fill="white"/>
</g>
<g filter="url(#filter1_d_4036_472)">
<path fill-rule="evenodd" clip-rule="evenodd" d="M10.1396 15.5866C10.1396 12.3719 12.7457 9.76587 15.9604 9.76587C19.1751 9.76587 21.7811 12.3719 21.7811 15.5866C21.7811 18.8013 19.1751 21.4074 15.9604 21.4074C12.7457 21.4074 10.1396 18.8013 10.1396 15.5866ZM15.9604 11.8134C13.8765 11.8134 12.1871 13.5027 12.1871 15.5866C12.1871 17.6705 13.8765 19.3599 15.9604 19.3599C18.0443 19.3599 19.7336 17.6705 19.7336 15.5866C19.7336 13.5027 18.0443 11.8134 15.9604 11.8134Z" fill="white"/>
</g>
<g filter="url(#filter2_d_4036_472)">
<path fill-rule="evenodd" clip-rule="evenodd" d="M21.8405 11.0236C22.6159 11.0236 23.2445 10.395 23.2445 9.61958C23.2445 8.84417 22.6159 8.21558 21.8405 8.21558C21.0651 8.21558 20.4365 8.84417 20.4365 9.61958C20.4365 10.395 21.0651 11.0236 21.8405 11.0236Z" fill="white"/>
</g>
<defs>
<filter id="filter0_d_4036_472" x="2.94359" y="2.56859" width="25.9781" height="25.8609" filterUnits="userSpaceOnUse" color-interpolation-filters="sRGB">
<feFlood flood-opacity="0" result="BackgroundImageFix"/>
<feColorMatrix in="SourceAlpha" type="matrix" values="0 0 0 0 0 0 0 0 0 0 0 0 0 0 0 0 0 0 127 0" result="hardAlpha"/>
<feOffset/>
<feGaussianBlur stdDeviation="0.966192"/>
<feColorMatrix type="matrix" values="0 0 0 0 0 0 0 0 0 0 0 0 0 0 0 0 0 0 0.130633 0"/>
<feBlend mode="normal" in2="BackgroundImageFix" result="effect1_dropShadow_4036_472"/>
<feBlend mode="normal" in="SourceGraphic" in2="effect1_dropShadow_4036_472" result="shape"/>
</filter>
<filter id="filter1_d_4036_472" x="8.20726" y="7.83348" width="15.5064" height="15.5064" filterUnits="userSpaceOnUse" color-interpolation-filters="sRGB">
<feFlood flood-opacity="0" result="BackgroundImageFix"/>
<feColorMatrix in="SourceAlpha" type="matrix" values="0 0 0 0 0 0 0 0 0 0 0 0 0 0 0 0 0 0 127 0" result="hardAlpha"/>
<feOffset/>
<feGaussianBlur stdDeviation="0.966192"/>
<feColorMatrix type="matrix" values="0 0 0 0 0 0 0 0 0 0 0 0 0 0 0 0 0 0 0.130633 0"/>
<feBlend mode="normal" in2="BackgroundImageFix" result="effect1_dropShadow_4036_472"/>
<feBlend mode="normal" in="SourceGraphic" in2="effect1_dropShadow_4036_472" result="shape"/>
</filter>
<filter id="filter2_d_4036_472" x="18.5041" y="6.28319" width="6.67239" height="6.67288" filterUnits="userSpaceOnUse" color-interpolation-filters="sRGB">
<feFlood flood-opacity="0" result="BackgroundImageFix"/>
<feColorMatrix in="SourceAlpha" type="matrix" values="0 0 0 0 0 0 0 0 0 0 0 0 0 0 0 0 0 0 127 0" result="hardAlpha"/>
<feOffset/>
<feGaussianBlur stdDeviation="0.966192"/>
<feColorMatrix type="matrix" values="0 0 0 0 0 0 0 0 0 0 0 0 0 0 0 0 0 0 0.130633 0"/>
<feBlend mode="normal" in2="BackgroundImageFix" result="effect1_dropShadow_4036_472"/>
<feBlend mode="normal" in="SourceGraphic" in2="effect1_dropShadow_4036_472" result="shape"/>
</filter>
<linearGradient id="paint0_linear_4036_472" x1="0.337173" y1="3.07974" x2="8.63423" y2="38.8125" gradientUnits="userSpaceOnUse">
<stop stop-color="#4E60D3"/>
<stop offset="0.148736" stop-color="#913BAF"/>
<stop offset="0.315836" stop-color="#D52D88"/>
<stop offset="0.493765" stop-color="#D72E85"/>
<stop offset="0.81651" stop-color="#E6366D"/>
<stop offset="1" stop-color="#F26D4F"/>
</linearGradient>
<radialGradient id="paint1_radial_4036_472" cx="0" cy="0" r="1" gradientUnits="userSpaceOnUse" gradientTransform="translate(11.1139 30.4852) rotate(15.5573) scale(27.2448 25.6564)">
<stop stop-color="#FED980"/>
<stop offset="0.372276" stop-color="#FCAE49"/>
<stop offset="0.555546" stop-color="#F06745"/>
<stop offset="1" stop-color="#E83D5C" stop-opacity="0.01"/>
</radialGradient>
</defs>
</svg>
