<svg width="58" height="57" viewBox="0 0 58 57" fill="none" xmlns="http://www.w3.org/2000/svg">
<path d="M21.0859 47.7192C17.8605 47.7192 15.4694 47.021 13.9151 45.6222C12.3582 44.2258 11.5811 42.0847 11.5811 39.2037V27.7093C11.5811 24.8284 12.3582 22.6897 13.9151 21.2909C15.4694 19.8945 17.8605 19.1938 21.0859 19.1938H31.0376V21.5554H21.0859C18.8537 21.5554 17.205 22.0601 16.1398 23.0645C15.0796 24.0714 14.5507 25.6197 14.5507 27.7093V32.2757H28.9321V34.6373H14.5507V39.2037C14.5507 41.2959 15.0796 42.8441 16.1398 43.8486C17.205 44.8554 18.8537 45.3576 21.0859 45.3576H31.2859V47.7192H21.0859Z" fill="white" stroke="white" stroke-width="2.36144"/>
<path d="M28.5283 19.1938H40.7942C43.5478 19.1938 45.646 19.8994 47.091 21.3105C48.5411 22.7215 49.2661 24.7745 49.2661 27.4643C49.2661 30.1836 48.5411 32.2463 47.091 33.6574C45.646 35.0685 43.5478 35.774 40.7942 35.774H31.5079V47.7192H28.5283V19.1938ZM40.5459 33.4124C42.3659 33.4124 43.7763 32.8906 44.7769 31.8446C45.7825 30.801 46.2866 29.3409 46.2866 27.4643C46.2866 25.6172 45.7825 24.1694 44.7769 23.1233C43.7763 22.0797 42.3659 21.5554 40.5459 21.5554H31.5079V33.4124H40.5459Z" fill="white" stroke="white" stroke-width="2.36144"/>
<path d="M4.40281 20.4462L29.2549 3.78766" stroke="white" stroke-width="5.90361" stroke-linecap="round"/>
<path d="M3.83984 53.5576H53.9115" stroke="white" stroke-width="5.90361" stroke-linecap="round"/>
<path d="M54.2168 20.561L29.5211 3.68202" stroke="white" stroke-width="5.90361" stroke-linecap="round"/>
</svg>
