<svg width="31" height="31" viewBox="0 0 31 31" fill="none" xmlns="http://www.w3.org/2000/svg">
<path fill-rule="evenodd" clip-rule="evenodd" d="M30.8738 22.5227C30.8738 22.6865 30.8686 23.0422 30.8586 23.3171C30.8346 23.9893 30.7814 24.8568 30.7007 25.2517C30.593 25.8138 30.4106 26.359 30.1584 26.8728C29.6037 27.968 28.7135 28.8574 27.6177 29.4111C27.1009 29.664 26.5526 29.8465 25.9873 29.9539C25.596 30.0329 24.7349 30.085 24.0674 30.109C23.7918 30.1189 23.4362 30.1236 23.2729 30.1236H8.52511C8.36131 30.1236 8.00563 30.1183 7.73068 30.1084C7.05852 30.0844 6.19096 30.0312 5.79609 29.951C5.23387 29.8428 4.68855 29.6602 4.17447 29.4081C3.07831 28.853 2.18831 27.962 1.6344 26.8652C1.38151 26.3483 1.19892 25.8 1.09152 25.2348C1.01255 24.8434 0.960485 23.9811 0.9365 23.3148C0.926555 23.0398 0.921875 22.6836 0.921875 22.5186V7.77077C0.921875 7.60697 0.92714 7.25129 0.9365 6.97634C0.96341 6.30593 1.01664 5.43663 1.09737 5.04351C1.20545 4.48132 1.38781 3.93599 1.63967 3.42189C2.19493 2.32717 3.08497 1.43816 4.18032 0.88416C4.69713 0.631261 5.24546 0.44868 5.81071 0.341281C6.20208 0.262306 7.06437 0.210241 7.73068 0.186256C8.00563 0.176311 8.3619 0.171631 8.52687 0.171631H23.2747C23.4385 0.171631 23.7942 0.176896 24.0691 0.186256C24.7395 0.213166 25.6088 0.266401 26.002 0.347131C26.5642 0.455205 27.1095 0.637568 27.6236 0.889425C28.7183 1.44468 29.6073 2.33472 30.1613 3.43008C30.4142 3.94688 30.5968 4.49522 30.7042 5.06047C30.7832 5.45184 30.8352 6.31295 30.8592 6.98044C30.8692 7.25539 30.8738 7.61165 30.8738 7.77487V22.5227Z" fill="url(#paint0_linear_4036_469)"/>
<path fill-rule="evenodd" clip-rule="evenodd" d="M23.1289 7.87432C22.1877 6.92622 21.0675 6.17456 19.8334 5.66299C18.5992 5.15143 17.2758 4.89015 15.9398 4.89434C10.3431 4.89434 5.78307 9.45207 5.78307 15.0552C5.78147 16.838 6.24958 18.5898 7.14027 20.1342L5.69824 25.3991L11.0849 23.9852C12.5745 24.7972 14.2439 25.223 15.9404 25.2236H15.9445C21.5447 25.2236 26.1054 20.6659 26.1054 15.0628C26.1084 13.7275 25.8468 12.4049 25.3356 11.1713C24.8244 9.93779 24.0738 8.81779 23.1271 7.87608L23.1289 7.87432ZM15.9428 23.5131C14.4294 23.5134 12.9438 23.1064 11.6418 22.3349L11.3324 22.1506L8.13593 22.9866L8.98945 19.8703L8.78938 19.5503C7.94076 18.2055 7.49216 16.6471 7.49595 15.0569C7.49595 10.398 11.285 6.60663 15.9474 6.60663C17.0569 6.60678 18.1554 6.82557 19.1803 7.2505C20.2052 7.67543 21.1362 8.29815 21.9203 9.08309C22.7044 9.86803 23.3261 10.7998 23.7499 11.8251C24.1736 12.8505 24.3912 13.9492 24.3901 15.0587C24.386 19.7194 20.5976 23.5096 15.9422 23.5096L15.9428 23.5131ZM20.573 17.1834C20.3203 17.0547 19.0707 16.4422 18.8385 16.3574C18.6063 16.2726 18.4378 16.2293 18.2652 16.4861C18.0926 16.7429 17.6088 17.3115 17.4602 17.4806C17.3117 17.6497 17.1642 17.6731 16.9121 17.5444C16.66 17.4157 15.8386 17.1483 14.8693 16.2831C14.1158 15.6104 13.6051 14.7773 13.4565 14.5281C13.3079 14.2789 13.4395 14.1356 13.5688 14.0116C13.6858 13.8986 13.8215 13.7155 13.9497 13.567C14.0778 13.4184 14.1181 13.3142 14.2024 13.1422C14.2866 12.9703 14.2457 12.8252 14.1819 12.6976C14.1181 12.5701 13.6086 11.32 13.4015 10.811C13.1974 10.3132 12.985 10.3828 12.8288 10.374C12.6726 10.3653 12.5117 10.3664 12.3438 10.3664C12.2153 10.3699 12.0889 10.3997 11.9725 10.4542C11.856 10.5086 11.752 10.5865 11.667 10.6829C11.433 10.9356 10.7778 11.5522 10.7778 12.8018C10.7778 14.0513 11.6869 15.2588 11.8144 15.429C11.9419 15.5992 13.6051 18.1645 16.1516 19.2631C16.7565 19.5228 17.2292 19.679 17.5977 19.8001C18.1156 19.9562 18.6626 19.9904 19.1959 19.9002C19.6844 19.8282 20.6982 19.2865 20.9106 18.6939C21.1229 18.1013 21.1229 17.5923 21.0597 17.4876C20.9966 17.3829 20.831 17.3121 20.5748 17.1822L20.573 17.1834Z" fill="white"/>
<defs>
<linearGradient id="paint0_linear_4036_469" x1="15.8331" y1="0.196458" x2="15.8331" y2="30.0186" gradientUnits="userSpaceOnUse">
<stop stop-color="#61FD7D"/>
<stop offset="1" stop-color="#2BB826"/>
</linearGradient>
</defs>
</svg>
